<?xml version="1.0" standalone="no"?>
<!DOCTYPE svg PUBLIC "-//W3C//DTD SVG 20010904//EN"
 "http://www.w3.org/TR/2001/REC-SVG-20010904/DTD/svg10.dtd">
<svg version="1.0" xmlns="http://www.w3.org/2000/svg"
 width="1000.000000pt" height="1000.000000pt" viewBox="0 0 1000.000000 1000.000000"
 preserveAspectRatio="xMidYMid meet">

<g transform="translate(0.000000,1000.000000) scale(0.100000,-0.100000)"
fill="#000000" stroke="none">
<path d="M590 9990 c19 -13 30 -13 30 0 0 6 -10 10 -22 10 -19 0 -20 -2 -8
-10z"/>
<path d="M948 9933 c62 -38 111 -72 108 -78 -2 -5 -30 -51 -63 -102 l-59 -91
-97 59 c-54 32 -100 59 -102 59 -3 0 -5 -6 -5 -12 0 -7 39 -35 86 -63 47 -27
90 -53 96 -56 10 -6 -97 -199 -111 -199 -3 0 -32 16 -64 35 -65 39 -67 40 -67
23 0 -7 27 -28 60 -47 l59 -34 -27 -48 c-16 -30 -35 -49 -49 -52 -15 -3 -83
29 -210 98 l-188 102 -145 27 c-80 14 -151 26 -157 26 -7 0 -13 -12 -13 -27
l0 -28 148 -26 148 -26 173 -95 c142 -78 176 -101 186 -125 13 -31 50 -48 79
-37 18 7 666 -375 1001 -591 191 -123 360 -215 395 -215 5 0 10 -8 10 -17 -1
-21 -17 -93 -22 -98 -2 -2 -40 7 -83 20 -44 14 -87 25 -95 25 -31 0 8 -19 91
-44 82 -24 86 -27 81 -51 -2 -14 -8 -28 -13 -31 -5 -3 -45 6 -89 21 -45 14
-88 25 -96 25 -24 0 -7 -17 23 -25 74 -18 163 -48 163 -55 0 -4 -39 -15 -87
-24 -47 -9 -89 -19 -92 -22 -6 -7 60 -1 133 12 l39 7 -7 -84 c-7 -83 -7 -85
24 -127 30 -42 31 -46 21 -93 -21 -95 -21 -95 67 -114 42 -9 87 -19 100 -22
12 -3 22 -1 22 5 0 5 -39 17 -87 27 -49 9 -91 19 -94 21 -6 3 -1 36 16 120 3
12 27 36 55 54 28 18 57 45 65 61 8 15 19 30 24 33 4 3 46 -1 92 -9 46 -8 85
-15 87 -15 1 0 2 -6 2 -14 0 -10 16 -17 46 -22 41 -6 45 -9 42 -33 -3 -25 -6
-26 -52 -23 -33 3 -46 0 -42 -7 4 -6 29 -11 57 -11 l49 0 0 39 c0 41 -11 51
-56 51 -23 0 -43 24 -31 36 11 11 125 -20 135 -37 9 -14 2 -49 -32 -161 -59
-194 -86 -332 -86 -441 l0 -90 -80 7 c-56 5 -80 4 -80 -4 0 -6 6 -10 13 -8 6
1 41 -1 76 -6 l63 -7 -6 -32 c-3 -18 -9 -69 -12 -114 l-7 -82 -48 -20 c-50
-22 -181 -28 -296 -15 l-53 7 0 48 c0 27 -4 49 -10 49 -5 0 -7 -21 -3 -50 3
-27 3 -50 0 -50 -22 0 -209 66 -244 86 -38 22 -43 29 -43 60 0 64 -12 74 -89
74 -103 0 -126 12 -148 73 -11 34 -19 45 -21 32 -1 -11 3 -38 11 -59 17 -50
65 -70 148 -62 65 6 73 1 83 -58 l7 -38 -58 6 c-160 18 -231 48 -457 190 -147
93 -190 116 -219 116 -21 0 -37 -5 -37 -11 0 -7 10 -9 25 -5 21 5 61 -16 217
-115 218 -137 315 -177 450 -187 43 -2 86 -11 96 -18 15 -12 7 -13 -53 -14
-63 0 -150 -22 -171 -43 -14 -14 26 -7 77 13 42 17 64 20 128 14 82 -6 211
-42 211 -58 0 -5 -9 -43 -21 -83 -11 -41 -19 -82 -17 -91 4 -16 20 32 48 136
9 36 14 42 28 36 9 -4 83 -10 165 -12 l147 -4 -1 -66 c0 -37 -6 -83 -13 -102
l-13 -35 -99 -6 -99 -5 107 -2 107 -2 16 52 c8 28 15 78 15 110 0 57 0 58 29
58 16 0 59 14 96 30 72 32 124 41 63 11 -90 -45 -113 -73 -168 -208 -58 -140
-87 -203 -96 -203 -4 0 -72 21 -153 46 -155 49 -446 188 -831 397 -294 159
-664 335 -749 356 -42 11 -123 22 -181 26 l-105 7 -125 98 -125 98 -3 -30 c-2
-19 4 -38 15 -52 31 -35 75 -107 83 -137 7 -23 3 -36 -19 -67 -16 -21 -40 -46
-55 -55 -15 -10 -26 -27 -26 -39 0 -19 8 -14 54 31 76 75 85 100 58 162 -11
27 -16 46 -10 43 6 -4 39 -28 73 -54 l62 -47 113 -8 c155 -10 225 -31 455
-142 212 -102 595 -303 595 -313 0 -5 -49 -35 -268 -163 l-33 -19 7 40 c8 49
14 44 -213 159 -148 76 -152 77 -171 60 -22 -20 -48 -108 -38 -132 3 -8 13
-15 22 -15 13 0 14 3 4 15 -16 19 -4 88 19 109 17 15 30 10 189 -71 183 -94
184 -95 159 -156 -13 -29 -39 -44 -281 -160 -147 -71 -271 -127 -275 -125 -5
2 -52 54 -107 117 l-98 115 1 70 c1 52 -1 63 -7 41 -4 -16 -8 -45 -9 -63 l-1
-33 -42 24 c-24 14 -82 39 -129 57 l-86 31 -12 66 c-7 36 -8 69 -4 73 4 4 26
13 48 20 53 17 26 26 -31 10 -41 -12 -44 -15 -44 -47 0 -44 20 -125 34 -139 6
-7 51 -26 101 -44 50 -18 105 -42 123 -54 l34 -21 2 -244 2 -244 -90 -116
c-49 -64 -116 -149 -148 -189 -33 -40 -58 -79 -56 -86 2 -8 47 41 101 110 87
110 100 123 116 112 9 -7 212 -163 450 -346 238 -184 435 -331 439 -328 9 9
12 6 -443 356 -231 177 -426 328 -434 335 -12 11 -1 30 65 122 44 59 113 143
154 185 74 77 78 80 293 183 120 58 220 105 223 105 3 0 28 -47 55 -105 47
-98 53 -105 87 -114 20 -6 141 -14 269 -20 127 -5 236 -12 242 -16 12 -7 15
-115 4 -154 -6 -23 -7 -23 -109 -19 -57 3 -104 2 -104 -2 0 -4 48 -10 107 -14
106 -6 115 -4 126 28 3 9 202 -98 212 -114 5 -9 -28 -46 -690 -775 -270 -297
-586 -648 -704 -780 -118 -132 -226 -253 -242 -269 l-28 -29 -95 72 c-56 41
-96 65 -96 57 0 -8 36 -40 79 -73 l80 -58 -67 -70 -67 -70 67 64 c37 36 70 62
73 59 3 -3 -33 -42 -80 -87 -52 -50 -85 -89 -85 -102 0 -19 3 -18 43 10 58 40
138 125 456 481 150 168 275 306 279 307 4 1 15 -4 25 -12 18 -13 13 -22 -77
-140 -53 -69 -96 -134 -96 -145 0 -10 16 -31 35 -45 55 -43 72 -31 217 155 71
90 128 171 128 180 0 15 -86 80 -105 80 -6 0 -23 -18 -38 -40 -31 -44 -39 -47
-57 -25 -10 12 -5 23 28 62 22 27 54 61 71 77 l31 30 43 -41 c23 -23 87 -67
141 -98 l100 -56 230 67 c127 36 264 80 305 97 72 29 75 30 85 11 17 -30 85
-94 100 -94 8 0 73 61 145 136 71 74 163 158 203 186 40 28 89 66 109 85 l36
34 40 -68 c65 -110 65 -142 -2 -391 l-56 -207 -73 -75 -73 -75 18 -115 c19
-128 16 -258 -8 -288 -13 -15 -14 -14 -9 13 15 75 18 143 7 149 -7 5 -10 -7
-9 -36 2 -57 -19 -128 -37 -128 -8 0 -32 15 -52 33 -74 65 -96 76 -169 81
l-69 5 55 -10 c115 -21 132 -45 94 -125 l-29 -59 -93 -22 c-75 -17 -102 -29
-142 -61 -39 -31 -61 -41 -106 -47 -54 -6 -63 -12 -161 -98 -125 -111 -224
-169 -475 -278 -104 -45 -188 -86 -188 -90 0 -5 2 -9 3 -9 15 0 400 175 467
212 48 26 128 84 184 133 120 105 130 111 186 118 45 6 45 5 80 -44 l35 -50
53 6 c34 3 64 0 86 -9 39 -16 49 -48 48 -166 l0 -75 10 69 c8 50 7 83 -2 123
-14 64 -33 76 -124 72 l-59 -3 -33 45 -33 45 48 37 c35 27 69 41 132 56 50 12
86 16 90 10 3 -5 14 -70 24 -145 15 -116 17 -173 11 -388 -5 -171 -13 -286
-26 -361 -21 -120 -36 -394 -21 -360 5 11 10 65 10 120 1 56 10 150 21 210 14
79 23 189 29 385 7 195 14 292 26 332 8 31 45 107 82 168 l66 110 81 26 c66
22 105 28 216 31 l135 5 60 -94 c32 -51 71 -109 86 -128 16 -19 73 -109 128
-199 137 -224 152 -292 111 -502 -32 -161 -59 -217 -158 -320 -46 -49 -82 -94
-80 -100 7 -20 172 163 200 222 14 30 37 111 51 180 22 106 24 137 17 214 -10
117 -22 148 -113 298 -43 69 -77 129 -77 132 0 14 59 -28 102 -72 39 -39 62
-81 127 -227 44 -98 107 -226 140 -285 65 -117 99 -210 103 -286 l3 -50 -125
-7 c-68 -4 -125 -6 -126 -5 -1 1 -4 18 -8 38 l-6 37 85 7 c47 4 85 10 85 14 0
14 -13 21 -24 12 -6 -5 -40 -11 -76 -13 -51 -4 -68 -1 -78 11 -10 13 -12 8 -6
-34 11 -95 -3 -88 158 -80 77 4 142 8 143 9 1 1 -2 33 -8 71 -14 102 -44 184
-109 299 -32 55 -93 180 -136 276 -86 196 -114 233 -226 307 -38 24 -68 49
-68 54 0 6 44 -13 98 -42 l97 -52 190 -22 c174 -21 206 -22 194 -11 -2 2 -83
13 -180 24 l-177 21 -132 66 -131 66 -50 77 c-27 42 -49 81 -49 85 0 4 62 5
138 1 106 -5 150 -3 197 9 33 8 72 18 86 21 31 7 93 94 104 146 4 19 17 64 28
100 19 61 21 63 27 35 l7 -30 7 30 c5 17 12 46 17 66 12 49 94 125 144 135 30
5 47 2 82 -17 l43 -24 68 24 c88 32 157 78 176 119 25 51 45 187 51 349 9 208
9 208 147 268 60 27 120 57 133 67 23 18 32 18 182 6 158 -13 158 -13 161 -38
2 -21 -4 -29 -32 -42 -59 -29 -208 -216 -272 -345 l-57 -111 -3 -104 c-3 -116
3 -113 14 7 l7 80 128 -4 c87 -2 127 0 127 8 0 7 -43 11 -124 13 l-124 3 42
90 c57 121 267 377 291 353 2 -2 9 -122 15 -268 8 -194 18 -303 36 -406 30
-173 183 -694 404 -1376 9 -27 8 -28 -63 -49 -40 -12 -91 -32 -115 -46 -40
-23 -45 -24 -62 -8 -9 9 -41 84 -70 168 -29 84 -62 164 -74 180 -25 34 -32 36
-361 92 -290 50 -526 114 -597 162 -37 25 -38 28 -38 85 0 32 -5 78 -11 102
-10 41 -9 44 48 142 49 82 67 126 106 264 49 172 53 191 38 175 -5 -6 -30 -81
-55 -168 -38 -132 -55 -176 -106 -263 l-61 -104 15 -55 c9 -34 12 -77 9 -109
-6 -53 -5 -54 33 -80 75 -51 300 -112 613 -166 161 -28 302 -55 315 -60 34
-13 58 -58 111 -215 27 -77 57 -150 68 -162 l19 -22 -115 -146 c-82 -104 -160
-188 -269 -289 -84 -78 -247 -240 -363 -360 -115 -120 -256 -256 -313 -302
-91 -74 -106 -82 -128 -74 -103 39 -241 168 -259 243 -4 15 -12 27 -17 27 -16
0 0 -50 30 -96 57 -87 203 -194 266 -194 15 0 53 23 99 60 73 58 92 68 99 52
7 -16 225 -160 261 -171 20 -7 37 -17 37 -23 0 -6 -32 -42 -71 -80 -39 -38
-69 -72 -65 -75 9 -9 112 83 136 121 l21 35 47 -16 c26 -9 67 -30 92 -48 25
-17 75 -46 113 -63 37 -17 67 -33 67 -35 0 -3 -28 -15 -62 -28 -60 -22 -253
-121 -273 -140 -24 -23 24 -4 128 50 61 32 141 69 176 82 l64 23 51 -27 c28
-14 71 -31 96 -37 25 -6 70 -24 100 -40 30 -15 118 -49 195 -75 76 -25 144
-49 150 -53 8 -5 6 -85 -7 -277 -15 -226 -17 -351 -11 -763 6 -467 7 -492 24
-492 18 0 18 20 12 478 -7 604 12 977 73 1402 27 185 50 251 95 265 11 4 69 3
127 -1 106 -7 107 -7 70 -22 -60 -23 -63 -67 -12 -178 33 -72 37 -90 45 -209
10 -161 46 -309 111 -468 26 -65 48 -122 48 -128 0 -7 -48 -8 -150 -3 -110 5
-150 4 -150 -5 0 -8 38 -11 123 -11 198 0 190 3 243 -102 40 -79 43 -89 27
-95 -75 -27 -108 -42 -111 -52 -6 -17 12 -14 80 14 34 14 64 21 67 17 125
-184 178 -256 204 -276 22 -17 57 -29 106 -37 l73 -12 58 -68 c86 -99 139
-183 172 -268 30 -77 33 -123 12 -215 -5 -22 -4 -28 7 -24 8 3 20 34 28 75 14
71 14 71 -17 158 l-32 87 22 18 c13 10 148 122 302 248 242 201 288 235 348
258 39 15 102 48 140 75 39 27 91 56 117 65 52 19 73 34 49 34 -35 0 -107 -33
-183 -84 -44 -30 -109 -64 -143 -77 -54 -20 -111 -63 -363 -271 l-298 -247
-24 32 c-13 18 -35 49 -49 69 -13 20 -51 65 -84 101 -59 64 -60 64 -126 71
-90 10 -114 30 -215 182 -70 104 -82 129 -71 139 7 6 141 109 298 227 l286
215 17 91 c10 50 23 105 31 122 l13 32 36 -57 c35 -56 102 -114 115 -100 4 4
-2 13 -13 22 -11 8 -27 20 -35 26 -16 13 -68 89 -72 107 -5 20 111 60 174 60
67 0 148 25 303 92 77 33 104 51 120 75 11 18 23 31 26 30 3 -1 25 -24 49 -52
41 -48 104 -82 155 -84 30 -1 6 14 -50 33 -40 14 -61 30 -103 81 -58 69 -122
212 -102 225 6 4 46 12 89 19 78 12 282 91 378 147 23 13 46 24 51 24 5 0 24
-21 42 -47 43 -60 52 -39 10 22 -18 26 -30 48 -28 49 1 1 59 48 128 103 190
153 243 213 371 418 61 99 113 182 115 184 1 2 26 -16 53 -40 64 -55 65 -75
11 -173 -41 -75 -45 -86 -32 -86 4 0 24 31 45 69 28 51 37 80 37 116 0 44 -3
50 -50 92 l-51 45 47 86 c86 159 87 159 432 15 232 -96 313 -142 532 -296 159
-113 214 -158 232 -191 6 -11 28 -96 50 -190 34 -150 39 -192 45 -341 6 -184
3 -205 -59 -465 -37 -156 -48 -256 -37 -340 5 -36 84 -311 176 -612 l168 -548
28 0 c22 0 28 4 23 15 -3 9 -80 260 -172 558 -199 649 -198 642 -144 869 l32
137 39 -19 c29 -15 58 -20 124 -20 74 0 94 4 148 29 71 34 121 73 116 90 -3 7
-21 -2 -44 -22 -70 -60 -129 -81 -220 -78 -82 2 -155 24 -155 46 0 7 7 48 16
91 14 65 16 113 10 264 -5 162 -10 205 -42 348 -31 138 -35 167 -24 187 10 18
10 38 1 92 -10 59 -26 91 -111 234 -55 91 -100 168 -100 171 0 3 13 11 29 17
23 10 38 9 87 -9 53 -19 528 -150 547 -150 4 0 7 4 7 9 0 5 -96 32 -212 61
-117 29 -246 66 -286 81 -74 29 -139 37 -171 19 -15 -8 -25 1 -62 52 -34 46
-61 70 -119 104 -48 28 -87 44 -109 44 -26 0 -41 9 -67 37 -41 45 -57 37 -21
-10 20 -27 35 -35 70 -40 24 -3 76 -25 115 -47 85 -49 120 -94 273 -344 84
-139 105 -181 115 -233 7 -37 8 -66 3 -69 -5 -3 -30 17 -55 45 -48 53 -310
244 -449 327 -44 26 -150 77 -235 114 -128 55 -157 71 -164 92 -7 19 0 54 28
145 40 133 41 136 24 131 -6 -2 -28 -57 -48 -121 -46 -150 -58 -160 -135 -122
-49 23 -88 58 -97 86 -2 5 -44 14 -93 19 -50 6 -117 20 -150 32 -68 26 -385
199 -385 211 0 13 86 7 131 -9 53 -19 126 -12 145 14 7 9 14 36 14 60 0 23 3
42 7 42 3 0 40 -21 80 -46 41 -25 77 -43 80 -40 8 8 11 6 -89 68 -48 30 -127
72 -177 93 -83 34 -90 40 -85 61 10 37 -4 60 -44 73 -24 8 -46 25 -60 48 -29
43 -42 35 -17 -10 11 -21 34 -41 59 -53 32 -15 41 -24 41 -44 0 -31 9 -33
-205 46 -185 69 -543 238 -572 270 -11 13 -24 73 -41 187 -23 153 -31 188 -40
176 -2 -2 8 -83 22 -180 20 -135 31 -182 45 -198 11 -12 70 -47 132 -78 l112
-57 -24 -48 c-13 -26 -27 -48 -30 -48 -3 0 -46 35 -95 78 -80 68 -100 94 -187
232 -114 179 -158 259 -429 775 -261 495 -267 507 -292 595 -11 41 -35 95 -52
119 -17 24 -27 47 -22 52 39 39 201 149 220 149 42 0 87 -113 180 -450 82
-300 119 -410 135 -410 13 0 9 18 -11 58 -10 20 -58 181 -106 357 -50 183 -98
338 -113 363 -13 24 -21 46 -17 50 8 8 38 -25 206 -219 l115 -134 48 -230 c51
-246 56 -267 63 -248 2 6 -19 120 -47 253 l-50 243 -145 167 c-151 175 -204
220 -256 220 -31 0 -43 -8 -216 -137 l-31 -24 -44 63 c-25 35 -68 118 -96 185
-68 160 -66 153 -52 153 13 0 48 -26 173 -129 l78 -64 -27 -28 c-15 -16 -24
-32 -21 -36 10 -9 117 97 117 116 0 11 -8 8 -27 -11 l-26 -27 -83 67 c-46 37
-83 70 -84 74 0 3 16 15 35 27 37 21 44 46 25 82 -7 13 -21 19 -43 18 l-32 -1
33 -14 c43 -19 42 -46 -4 -74 l-36 -23 -30 23 c-16 12 -38 20 -48 17 -16 -4
-22 7 -39 72 -22 81 -28 191 -11 191 6 0 50 -9 99 -20 219 -49 403 -173 617
-416 170 -194 383 -414 400 -414 7 0 25 10 40 23 l27 23 -27 128 -27 128 25
39 c36 54 32 62 -5 11 -18 -25 -36 -39 -42 -35 -65 38 -137 98 -132 110 9 25
87 133 96 133 4 0 27 -15 51 -33 34 -26 44 -41 49 -72 l6 -40 1 35 c2 44 -3
52 -60 92 l-46 33 33 64 32 65 24 -37 c23 -35 39 -47 39 -28 0 4 -12 25 -26
46 l-26 38 35 76 c20 42 38 86 42 99 6 21 12 22 95 22 108 0 190 -23 260 -75
27 -20 50 -40 50 -45 0 -8 -67 -52 -138 -91 -18 -10 -39 -37 -55 -70 -24 -48
-27 -70 -33 -210 l-7 -155 77 -232 c43 -128 82 -232 87 -232 5 0 9 1 9 3 0 1
-36 110 -80 242 l-80 240 6 130 c4 72 11 141 16 154 l9 24 27 -25 c15 -13 57
-46 95 -72 37 -26 67 -50 67 -53 0 -4 -7 -15 -17 -25 -9 -10 -13 -21 -9 -26 4
-4 16 4 27 16 l19 24 127 -94 c71 -52 149 -109 176 -128 26 -18 47 -35 47 -37
0 -19 -48 -88 -90 -128 -100 -97 -100 -127 1 -262 50 -67 81 -99 112 -114 23
-12 44 -23 46 -25 2 -1 -6 -18 -17 -36 -37 -63 -67 -169 -66 -243 l0 -70 72
-106 71 -105 209 -102 c121 -59 219 -114 236 -131 16 -16 50 -77 77 -136 26
-58 76 -144 109 -190 55 -77 62 -92 75 -167 8 -46 15 -103 15 -127 0 -34 3
-42 15 -38 8 4 73 -21 144 -53 155 -70 200 -84 480 -150 118 -28 219 -57 225
-65 20 -26 105 -55 159 -54 29 1 73 -4 98 -11 26 -6 55 -10 65 -8 11 3 -16 12
-58 22 -77 18 -78 18 -78 50 0 30 -3 33 -53 49 -66 21 -101 22 -117 2 -7 -8
-18 -15 -24 -15 -6 0 -102 21 -214 47 -161 38 -202 50 -200 63 2 8 15 16 30
18 43 5 51 62 9 62 -23 0 -68 48 -76 81 -8 34 -45 54 -85 45 -21 -4 -42 0 -63
11 -19 10 -76 22 -137 28 l-104 10 -11 60 c-12 68 -9 62 -86 170 -50 72 -129
225 -129 253 0 7 22 3 57 -9 32 -11 67 -18 78 -17 23 4 -97 48 -130 48 -11 0
-38 18 -59 39 -21 22 -70 54 -110 72 -39 17 -73 34 -75 36 -3 1 6 26 19 53 23
49 25 50 67 50 24 0 52 -5 62 -12 14 -9 45 -9 130 1 62 6 116 9 121 6 6 -4 10
-26 10 -51 l0 -44 43 1 c23 0 101 6 172 13 72 8 131 13 133 11 2 -1 6 -35 9
-74 3 -39 9 -71 14 -71 4 0 5 33 2 73 l-6 74 39 6 c22 4 56 7 76 7 l36 0 7
-67 c3 -38 10 -77 16 -88 8 -18 8 4 -4 141 -2 15 8 20 53 26 30 4 60 6 66 3 6
-2 15 -33 18 -69 11 -95 27 -140 21 -53 -3 37 -8 81 -11 97 -6 28 -4 30 35 36
23 4 39 9 37 12 -3 2 -91 -4 -195 -14 -105 -10 -192 -16 -195 -13 -2 2 -6 24
-8 49 l-3 45 177 21 c97 12 183 24 192 27 26 10 19 41 -34 138 -27 50 -47 97
-43 103 16 27 78 96 86 96 5 0 34 -15 65 -34 52 -31 69 -35 200 -49 131 -14
149 -19 208 -51 36 -20 67 -36 69 -36 3 0 5 12 5 28 0 23 -9 32 -58 59 -51 28
-76 34 -207 48 -181 21 -174 17 -460 255 -110 91 -215 176 -232 188 -28 20
-33 30 -33 65 -1 62 -33 95 -104 103 -46 6 -59 3 -85 -15 l-30 -22 -248 135
c-196 105 -400 224 -431 252 -5 3 117 164 124 164 3 0 43 -27 90 -60 46 -33
86 -60 89 -60 21 0 -8 28 -80 77 -46 32 -85 62 -85 66 0 8 110 157 116 157 2
0 38 -25 80 -55 75 -53 94 -63 94 -47 0 5 -103 82 -153 114 -7 4 13 38 52 88
34 45 60 85 57 88 -10 9 -29 -14 -146 -172 -63 -85 -118 -155 -123 -156 -10 0
-137 84 -137 91 0 4 25 37 55 75 52 65 66 90 46 82 -12 -5 -96 -108 -179 -221
-50 -67 -77 -95 -85 -90 -47 29 -167 120 -167 127 0 4 28 47 63 95 74 100 167
238 167 246 0 21 -27 -6 -70 -70 -28 -41 -54 -75 -58 -75 -4 0 -23 11 -42 23
-77 52 -90 59 -90 49 0 -6 27 -30 61 -52 33 -23 59 -45 57 -49 -9 -21 -104
-150 -111 -151 -4 0 -61 40 -127 90 -65 49 -135 98 -155 107 -31 15 -33 18
-18 25 10 4 0 5 -22 2 -27 -4 -36 -2 -26 4 10 7 0 11 -35 15 -27 2 -178 16
-336 31 -261 23 -362 37 -374 48 -2 3 10 105 27 229 16 123 34 266 39 317 4
52 10 96 13 98 3 3 42 -2 88 -10 46 -9 185 -30 309 -47 214 -30 231 -31 345
-20 190 18 225 15 460 -38 l216 -49 162 24 c232 34 316 32 318 -10 1 -18 2
-18 6 -3 3 13 10 16 21 11 47 -20 248 -87 332 -110 88 -24 99 -30 152 -81 38
-38 58 -66 63 -89 8 -45 25 -44 18 1 -5 31 -3 35 23 40 72 16 160 53 297 125
208 111 220 123 287 271 48 107 60 126 99 153 71 50 86 64 79 71 -3 4 -33 -11
-65 -33 l-59 -40 -64 58 c-36 32 -63 60 -60 63 3 2 54 11 113 20 60 10 113 20
119 23 6 4 8 24 4 50 -4 29 -2 44 7 47 30 13 -30 5 -183 -23 -201 -37 -194
-37 -186 -5 4 14 3 25 -1 24 -5 0 -39 -36 -78 -80 -87 -100 -156 -153 -217
-168 -74 -18 -73 -18 -91 67 -24 110 -25 107 36 121 42 9 63 22 110 69 31 31
57 63 57 71 0 8 -31 -15 -68 -52 -39 -37 -81 -69 -98 -72 -16 -4 -37 -9 -46
-11 -12 -4 -19 2 -23 18 -15 68 -57 265 -58 277 -2 16 62 31 483 110 206 39
258 46 270 36 8 -7 25 -16 37 -19 13 -4 25 -17 28 -29 30 -132 33 -141 34
-109 1 18 -4 54 -11 79 -8 35 -8 50 0 64 7 10 12 44 12 74 0 54 -1 55 -29 55
-40 0 -49 15 -61 101 -21 144 -19 139 -44 139 -17 0 -25 8 -34 38 l-11 37 2
-43 c2 -36 -1 -43 -18 -47 -77 -18 -112 -25 -122 -25 -7 0 -15 21 -19 50 -4
28 -10 50 -15 50 -12 0 -11 -8 2 -70 6 -27 14 -50 17 -50 3 0 51 9 105 21 54
12 100 19 103 17 2 -3 7 -31 10 -64 l6 -59 -88 -18 c-49 -10 -120 -25 -158
-34 l-68 -15 6 -42 c3 -22 9 -51 12 -63 5 -19 2 -23 -18 -23 -23 0 -24 5 -68
258 -25 141 -44 267 -42 278 5 35 153 144 195 144 9 0 5 -58 -9 -107 -3 -13
-2 -23 3 -23 4 0 21 50 36 112 25 104 26 113 10 130 -10 11 -30 18 -54 18
l-38 0 -12 -62 c-13 -65 -23 -79 -112 -155 -29 -25 -37 -38 -37 -65 1 -18 20
-143 44 -278 24 -135 43 -246 42 -247 -8 -9 -160 -33 -165 -26 -10 10 -77 312
-92 413 -7 41 -16 82 -21 90 -9 15 -7 -16 8 -124 l6 -44 -103 29 c-111 30
-133 34 -125 20 3 -4 56 -21 117 -37 87 -23 113 -33 119 -49 13 -34 72 -316
68 -321 -3 -2 -28 -6 -56 -9 -28 -2 -70 -9 -94 -15 -58 -13 -58 -13 -58 10 0
11 -5 20 -11 20 -7 0 -9 -10 -7 -25 6 -28 12 -25 -126 -55 -55 -11 -147 -34
-205 -50 -58 -17 -109 -30 -112 -30 -16 0 -18 91 -3 127 14 35 112 233 120
242 2 2 22 -4 46 -14 24 -9 49 -19 56 -22 6 -3 12 -1 12 4 0 5 -22 20 -50 33
-27 13 -50 24 -50 25 0 1 29 53 64 116 58 103 68 129 101 269 21 85 41 172 46
192 l9 37 68 -26 c116 -44 152 -52 152 -33 0 6 -8 10 -17 10 -29 0 -193 64
-193 75 0 9 60 196 65 203 1 1 18 -5 38 -13 42 -18 57 -19 57 -5 0 6 -4 10 -9
10 -5 0 -25 7 -45 15 l-36 15 51 103 c28 56 53 104 55 106 1 1 83 -27 181 -64
155 -59 330 -144 551 -267 l52 -29 0 23 c0 20 -30 38 -213 135 -116 61 -286
141 -377 178 -91 37 -168 69 -172 71 -7 5 27 113 41 127 10 10 261 -70 261
-83 0 -5 6 -7 14 -4 18 7 189 -44 198 -59 10 -16 17 -6 24 34 5 32 4 33 -10
15 -18 -22 2 -27 -281 61 -99 31 -184 59 -188 63 -9 8 30 127 44 136 5 3 18 0
30 -6 11 -7 24 -8 27 -4 4 4 2 9 -4 11 -6 2 -20 10 -30 19 -18 13 -17 14 8 8
23 -5 27 -2 33 26 5 22 2 36 -9 49 -16 17 -15 22 4 70 22 56 24 71 12 71 -5 0
-21 -37 -37 -82 -31 -92 -41 -109 -50 -86 -18 47 -230 173 -279 166 -12 -2 10
-15 60 -36 43 -18 97 -48 119 -66 l40 -34 -36 -15 c-41 -17 -59 -54 -59 -124
0 -32 5 -48 21 -61 12 -9 32 -26 45 -37 l24 -20 -23 -62 c-12 -35 -25 -63 -29
-63 -11 0 -437 153 -568 203 -121 47 -122 49 -107 107 4 14 0 9 -9 -10 -9 -19
-18 -37 -20 -39 -2 -2 -66 22 -141 54 -134 57 -255 132 -298 183 -13 15 -29
23 -43 20 l-22 -3 26 -32 c45 -58 175 -140 315 -199 74 -32 139 -62 144 -69 6
-6 15 -10 21 -8 8 3 649 -237 675 -253 7 -4 -2 -34 -16 -52 -2 -2 -568 166
-672 199 -31 10 -32 10 -17 44 20 50 16 57 -6 9 l-18 -41 -318 92 c-176 50
-338 100 -361 111 l-43 19 55 88 c30 48 55 89 55 92 0 15 -30 2 -35 -15 -3
-11 -11 -20 -16 -20 -5 0 -27 9 -49 20 -22 11 -52 20 -67 20 -23 -1 -17 -6 35
-30 34 -16 62 -33 62 -39 0 -6 -16 -35 -35 -65 -19 -30 -35 -58 -35 -61 0 -3
19 -14 43 -25 l42 -19 -80 0 c-53 -1 -113 7 -180 24 -106 26 -305 82 -311 88
-2 1 3 27 11 57 17 65 18 70 6 70 -4 0 -14 -27 -21 -60 -7 -33 -15 -60 -17
-60 -3 0 -77 27 -165 61 -88 33 -169 59 -180 57 -10 -2 57 -32 150 -67 93 -35
174 -66 180 -70 8 -5 2 -45 -18 -135 -17 -71 -32 -131 -34 -133 -2 -3 -109 56
-238 130 -259 150 -242 131 -223 237 5 29 4 41 -2 35 -5 -5 -24 -77 -42 -160
-18 -82 -54 -240 -81 -350 -95 -392 -112 -488 -119 -662 -1 -7 -18 -21 -38
-32 -48 -25 -97 -76 -116 -122 -18 -44 -5 -147 25 -199 17 -29 19 -45 14 -93
-15 -127 -58 -192 -293 -436 l-148 -153 -40 11 c-22 6 -79 14 -126 17 l-86 7
19 86 c19 87 32 106 75 117 28 8 32 19 53 153 23 144 19 175 -29 207 -49 32
-131 57 -136 41 -2 -7 -15 -93 -30 -192 -17 -117 -39 -218 -61 -287 l-35 -106
-31 9 c-17 4 -32 10 -34 12 -2 2 11 80 30 173 19 93 37 210 40 259 11 145 16
173 35 178 13 4 13 5 1 6 -9 0 -22 20 -30 44 l-15 42 -103 0 c-79 0 -102 3
-102 13 0 17 54 345 76 457 22 117 25 122 81 130 26 3 51 6 56 5 4 0 44 24 89
55 l82 55 26 -25 c14 -13 38 -29 53 -34 37 -14 97 -14 97 0 0 6 -11 8 -27 5
-16 -3 -38 0 -50 7 -21 11 -22 15 -8 33 13 19 28 22 172 28 181 8 214 19 250
81 15 28 23 64 28 132 4 52 5 96 3 99 -3 2 -19 1 -36 -2 -19 -4 -32 -14 -36
-28 -5 -21 -6 -21 -30 4 -18 18 -34 57 -56 140 -35 133 -40 233 -13 262 14 16
14 18 1 18 -9 0 -20 -6 -25 -12 -16 -20 -5 -185 16 -261 10 -37 15 -67 11 -65
-14 6 -110 123 -110 135 0 6 12 14 28 16 l27 4 -29 2 c-24 1 -27 4 -23 24 3
12 8 54 11 92 8 89 -9 56 -18 -37 -4 -38 -11 -68 -16 -68 -5 0 -16 20 -26 45
-13 35 -14 49 -6 57 15 15 16 55 2 63 -6 4 -10 -5 -10 -19 0 -14 -4 -26 -10
-26 -5 0 -10 11 -10 25 0 14 -5 25 -11 25 -7 0 -8 -11 -4 -30 8 -38 21 -38
-291 0 -135 17 -249 28 -253 25 -5 -2 -11 -37 -15 -77 -12 -122 -46 -361 -56
-392 -13 -39 -39 -56 -75 -50 -16 3 -77 8 -135 12 l-105 7 0 105 0 105 40 5
c46 6 52 20 36 85 l-9 40 -1 -51 c-1 -50 -2 -52 -31 -56 -38 -6 -40 -3 -40 46
-1 63 -17 119 -40 138 -13 11 -20 28 -20 52 0 29 -4 36 -19 36 -24 0 -31 -19
-31 -84 l0 -52 -35 4 c-21 3 -35 0 -35 -7 0 -6 16 -11 35 -11 l35 0 0 -120 c0
-89 -3 -120 -12 -120 -22 1 -57 34 -76 70 -16 33 -25 38 -157 82 -145 48 -191
55 -242 38 -33 -12 -64 -64 -84 -143 -13 -53 -16 -56 -66 -67 -30 -7 -34 -6
-28 8 3 9 18 76 32 150 14 73 29 128 33 122 5 -8 9 -7 13 3 4 11 31 17 102 22
84 7 103 5 154 -14 103 -37 111 -22 9 18 -54 22 -62 22 -163 11 -58 -6 -109
-9 -114 -6 -5 3 -6 26 -3 52 4 41 3 46 -14 42 -16 -3 -20 -16 -26 -78 -7 -78
-45 -264 -78 -385 -10 -38 -24 -89 -30 -112 -6 -26 -17 -43 -25 -43 -8 0 -15
-8 -15 -17 0 -15 2 -16 10 -3 8 12 10 11 10 -7 0 -12 -4 -33 -9 -46 l-10 -25
-66 26 c-36 14 -64 31 -62 37 2 5 33 127 68 270 35 143 64 261 64 262 0 1 29
-4 63 -11 51 -10 62 -10 62 1 0 7 -3 12 -7 11 -5 -1 -32 2 -60 6 -45 7 -53 11
-53 29 0 38 12 67 26 67 8 0 14 5 14 10 0 15 -37 12 -43 -4 -3 -7 -9 -34 -12
-60 -4 -25 -9 -46 -11 -46 -24 0 -401 105 -406 113 -10 17 -12 11 -37 -98 -50
-224 -58 -247 -108 -285 -25 -19 -55 -45 -67 -58 l-22 -22 -50 46 c-108 101
-345 304 -355 304 -20 0 -4 -16 101 -107 161 -137 238 -207 239 -215 1 -3 -23
-8 -51 -11 -46 -3 -56 -1 -75 20 -22 23 -53 31 -53 14 0 -5 4 -21 10 -36 7
-19 15 -24 32 -21 13 3 55 8 94 11 67 6 72 4 86 -17 9 -13 19 -38 22 -55 7
-31 6 -32 -31 -38 -21 -3 -100 -38 -176 -76 l-139 -71 -71 26 c-86 32 -210
103 -202 117 4 5 23 9 43 10 34 0 35 1 15 11 -13 6 -23 15 -23 20 0 13 -63 5
-75 -9 -7 -9 -29 4 -85 54 -41 36 -108 90 -147 120 -66 50 -72 57 -61 76 6 12
21 51 32 87 19 58 24 65 45 62 13 -2 61 2 107 8 60 9 84 16 84 26 0 10 -7 13
-22 9 -118 -25 -178 -26 -178 0 0 6 6 33 14 59 9 29 10 46 4 44 -6 -2 -29 -64
-52 -139 -43 -137 -52 -159 -64 -159 -4 1 -22 14 -40 29 l-33 28 31 50 c28 45
31 56 28 118 -2 46 -7 70 -16 73 -11 3 -12 0 -3 -16 21 -40 13 -102 -21 -156
-17 -28 -33 -53 -34 -55 -2 -2 -31 19 -66 46 -92 73 -274 185 -294 181 -10 -2
26 -30 94 -73 62 -38 112 -74 112 -78 0 -5 -6 -5 -12 -1 -7 4 -67 41 -132 81
-65 41 -126 73 -134 71 -8 -2 35 -34 96 -71 l112 -68 -27 -35 c-17 -23 -31
-33 -42 -29 -22 9 -231 137 -231 142 0 2 7 17 15 33 9 17 11 30 6 30 -14 0
-31 -34 -31 -62 0 -19 20 -35 106 -87 98 -60 105 -66 99 -90 -9 -37 -13 -38
-47 -18 -38 22 -51 12 -18 -13 40 -31 67 -26 80 15 9 26 17 35 34 35 13 0 31
12 44 30 13 17 28 30 34 30 7 0 53 -31 104 -70 50 -38 94 -70 98 -70 19 0 -2
24 -64 71 -38 29 -70 57 -70 61 0 5 41 -24 91 -63 51 -39 130 -101 178 -137
47 -36 122 -98 166 -136 44 -39 82 -71 84 -73 5 -3 -60 -263 -68 -267 -10 -6
-332 80 -399 107 -61 25 -182 94 -182 103 0 16 25 48 51 63 29 18 33 18 161
-5 116 -21 152 -23 137 -10 -7 6 -244 46 -274 46 -20 0 -39 -11 -66 -41 l-37
-40 -191 113 c-105 62 -206 122 -224 132 -77 45 -121 66 -141 66 -18 0 -43 12
-74 36 -2 1 15 34 37 72 23 39 41 75 41 81 0 26 -19 6 -59 -64 -23 -41 -44
-75 -46 -75 -4 0 -197 119 -204 126 -2 2 12 30 32 63 40 63 42 71 27 71 -5 0
-27 -27 -47 -60 l-38 -59 -100 59 c-55 33 -109 60 -120 60 -11 0 31 -30 93
-67z m4617 17 c132 -16 243 -30 247 -30 4 0 26 -35 47 -77 25 -49 75 -119 135
-188 52 -60 96 -116 96 -123 0 -18 -48 -36 -176 -68 -60 -15 -117 -34 -128
-43 -10 -9 -29 -37 -42 -62 -24 -48 -39 -59 -80 -59 -14 0 -58 -22 -99 -50
-41 -27 -76 -50 -79 -50 -2 0 14 56 37 125 37 110 46 128 75 145 17 11 32 24
32 30 0 14 -11 12 -31 -6 -23 -21 -46 -12 -51 18 -4 21 -5 21 -13 4 -5 -11 -4
-26 3 -36 9 -15 2 -46 -34 -154 l-45 -135 -55 -11 c-49 -10 -81 -7 -305 29
-138 23 -255 43 -260 47 -5 3 -9 29 -9 57 0 39 7 65 30 105 30 51 31 52 79 52
30 0 53 -5 61 -14 6 -8 25 -16 42 -18 26 -2 34 -10 44 -38 7 -19 13 -27 13
-17 1 30 53 19 62 -13 7 -24 7 -23 8 6 1 27 -3 31 -36 40 -49 12 -56 34 -9 34
45 0 84 18 91 42 4 10 14 18 22 18 20 0 237 -41 242 -45 1 -2 -3 -36 -10 -75
l-13 -72 -40 6 c-118 15 -161 18 -151 8 6 -6 53 -13 106 -17 110 -8 99 -17
120 93 6 34 9 65 7 68 -3 2 -63 16 -133 29 -71 14 -130 27 -132 29 -6 6 23
185 31 193 4 4 85 -2 180 -14 95 -12 186 -18 202 -15 25 6 29 12 30 45 2 47
-12 48 -20 2 -6 -31 -10 -35 -39 -35 -33 0 -349 39 -354 44 -3 3 16 168 23
204 2 13 12 22 22 22 9 0 125 -14 257 -30z m-1806 -36 c97 -25 181 -47 187
-49 8 -2 -9 -86 -53 -261 -35 -142 -67 -263 -71 -269 -5 -9 -62 3 -202 43
-107 30 -196 55 -198 57 -5 4 60 229 69 239 6 7 57 -6 127 -32 6 -2 12 1 12 6
0 6 -26 19 -57 28 -32 10 -62 21 -67 25 -15 13 44 259 62 259 8 0 94 -20 191
-46z m1092 -46 c8 -15 14 -91 17 -205 l5 -183 -27 0 -26 0 0 205 c0 202 5 232
31 183z m-3631 -101 c104 -66 165 -96 193 -97 9 0 170 -91 358 -201 309 -184
339 -203 325 -218 -15 -14 -25 -11 -116 37 -72 39 -108 52 -131 50 -30 -3 -33
-7 -86 -145 -51 -131 -57 -141 -75 -132 -10 6 -27 9 -36 6 -12 -2 -6 -9 20
-22 59 -29 57 -44 -17 -150 -37 -52 -70 -95 -75 -95 -4 0 -190 108 -411 240
-258 153 -406 247 -411 260 -6 18 19 76 48 109 3 3 118 -64 286 -167 l38 -23
68 105 c58 92 71 106 95 106 37 0 34 14 -7 27 -19 6 -102 52 -185 102 l-150
92 26 42 c14 23 44 68 66 99 46 66 29 68 177 -25z m6104 53 c234 -68 314 -82
414 -75 87 6 93 5 89 -12 -3 -10 -20 -79 -37 -153 -18 -74 -34 -136 -34 -137
-1 -1 -130 27 -286 63 -157 35 -294 66 -306 69 -20 4 -20 5 10 140 17 74 35
135 40 135 4 0 54 -13 110 -30z m2066 -1 c0 -10 -7 -19 -15 -19 -16 0 -19 9
-9 34 8 20 24 11 24 -15z m-2604 -60 c46 -27 84 -53 84 -57 0 -4 -14 -69 -32
-145 l-32 -139 -35 7 c-100 19 -211 48 -211 56 0 5 18 85 40 179 22 94 40 173
40 175 0 7 44 -16 146 -76z m2528 57 c15 -24 14 -30 -15 -105 l-30 -80 -39 25
c-43 29 -53 53 -41 105 11 47 18 58 45 69 38 15 63 11 80 -14z m-4809 -67
c171 -53 205 -88 123 -130 -41 -21 -44 -21 -118 -5 -41 9 -82 16 -90 16 -29
-1 13 -17 90 -35 l76 -18 49 25 c43 22 51 24 74 12 14 -7 33 -15 42 -18 13 -3
17 -30 23 -166 4 -90 4 -165 2 -168 -3 -3 -123 -7 -267 -10 -253 -5 -261 -4
-256 14 18 64 17 77 -3 111 -18 31 -20 45 -14 104 5 56 3 73 -11 95 -20 32
-16 69 16 144 36 84 75 88 264 29z m3681 -98 c267 -77 925 -273 962 -286 8 -3
0 -29 -30 -88 l-41 -85 -87 29 -86 29 4 36 c5 42 -7 54 -55 54 -30 0 -35 -6
-103 -124 -51 -90 -72 -138 -77 -173 -6 -56 3 -68 58 -78 33 -6 36 -4 54 29
11 20 22 36 25 36 3 0 47 -14 97 -31 58 -19 93 -36 93 -45 0 -14 -50 -237 -55
-242 -2 -2 -430 206 -497 242 l-26 14 23 112 c23 105 53 220 58 220 1 0 27 -7
57 -15 71 -19 91 -19 84 0 -3 8 3 46 15 84 24 78 24 81 12 81 -4 0 -18 -36
-31 -80 -13 -44 -25 -80 -27 -80 -3 0 -29 7 -59 16 -40 11 -54 20 -54 34 0 10
6 20 13 23 14 5 52 115 43 125 -8 8 -10 4 -32 -57 -15 -43 -25 -56 -47 -64
-16 -5 -30 -7 -33 -4 -3 3 2 32 10 65 31 116 17 126 -16 11 -11 -41 -26 -77
-32 -81 -15 -10 -86 -10 -86 0 0 4 9 44 20 90 22 90 25 122 12 107 -5 -6 -16
-46 -26 -90 -29 -132 -116 -385 -132 -385 -8 0 -63 15 -122 34 -59 19 -141 42
-182 51 -41 9 -98 23 -126 31 l-52 15 24 87 c13 48 42 161 64 251 37 152 51
191 70 191 3 0 146 -40 316 -89z m-1165 -27 c55 -30 99 -58 99 -62 -1 -16 -49
-194 -54 -200 -5 -4 -235 44 -243 51 -1 1 14 63 32 137 19 74 34 137 34 139 2
6 34 -10 132 -65z m-5785 -191 c-12 -30 -109 -173 -117 -173 -5 0 -74 39 -154
87 l-144 88 26 45 c15 25 42 69 60 97 l33 52 151 -91 c99 -61 148 -96 145
-105z m2193 106 c-11 -41 -22 -82 -25 -91 -3 -11 -15 -18 -29 -18 -20 0 -26 7
-35 40 -9 33 -8 44 5 62 16 24 96 90 101 85 2 -2 -5 -37 -17 -78z m2744 -21
c-8 -99 -34 -160 -79 -181 -41 -20 -250 -41 -311 -32 l-43 6 19 37 c30 59 51
71 192 108 73 18 140 41 150 50 10 9 23 32 29 50 8 23 18 34 30 34 17 0 18 -6
13 -72z m-1959 40 c11 -18 12 -38 6 -88 -7 -56 -6 -69 11 -97 17 -27 19 -40
12 -75 l-9 -43 -64 -3 c-81 -4 -104 2 -119 30 -6 13 -9 15 -7 6 4 -12 0 -18
-10 -18 -10 0 -13 6 -10 18 3 9 19 71 36 137 17 66 32 121 34 122 7 8 74 32
88 33 10 0 24 -10 32 -22z m2974 -4 c13 -4 22 -14 22 -26 0 -18 -4 -20 -32
-14 -38 7 -53 20 -44 35 8 12 21 13 54 5z m302 -70 c135 -31 248 -59 252 -62
4 -4 -5 -51 -19 -105 -22 -80 -30 -97 -45 -97 -39 0 -572 121 -584 132 -8 9
32 153 42 151 5 -1 26 -4 46 -8 34 -6 38 -5 44 19 3 14 9 26 13 26 3 0 116
-25 251 -56z m-2645 -44 c-9 -16 -18 -30 -20 -30 -3 0 -5 14 -5 30 0 23 4 30
20 30 20 0 20 -1 5 -30z m2198 -106 c10 -3 17 -11 14 -17 -2 -7 -15 -59 -27
-116 -13 -56 -29 -105 -35 -107 -11 -4 -481 109 -490 117 -3 4 39 198 48 223
4 10 57 1 238 -40 128 -30 242 -57 252 -60z m-3615 9 l3 -72 -50 -26 c-60 -30
-68 -31 -74 -7 -3 13 -4 13 -3 -3 1 -39 -12 -45 -94 -45 -76 0 -80 1 -86 24
-3 14 -3 35 1 47 6 19 4 21 -16 16 -13 -4 -30 -7 -36 -7 -7 0 -13 -5 -13 -10
0 -6 8 -10 17 -8 12 2 20 -8 28 -37 12 -39 13 -40 55 -40 l43 0 -2 -61 c-3
-69 5 -79 65 -92 35 -7 39 -11 42 -40 3 -31 2 -32 -25 -26 -55 13 -356 104
-361 108 -5 5 8 61 34 154 11 37 20 52 33 52 9 0 71 29 137 64 66 35 130 67
143 71 21 6 22 5 16 -17 l-6 -23 18 21 c23 28 39 33 88 31 l40 -2 3 -72z m187
15 c2 -2 -14 -71 -34 -153 l-38 -150 -28 2 c-55 4 -55 6 -20 100 l32 88 -31 9
c-17 4 -37 10 -43 12 -9 2 -13 26 -13 73 l0 70 86 -24 c47 -13 87 -25 89 -27z
m-861 -6 c44 -27 104 -57 131 -67 28 -10 51 -19 53 -20 4 -4 -40 -179 -47
-187 -5 -6 -280 57 -289 66 -4 5 60 256 65 256 3 0 42 -22 87 -48z m978 -24
c59 -16 82 -27 88 -42 5 -12 9 -15 9 -8 1 16 20 15 90 -4 l59 -17 -57 -218
c-31 -119 -59 -220 -63 -224 -7 -8 -128 15 -128 24 0 4 -8 7 -17 7 -39 1 -194
48 -191 58 2 6 28 109 58 229 30 119 59 217 64 217 5 0 44 -10 88 -22z m4748
-13 c0 -43 -13 -49 -117 -60 -78 -8 -80 -7 -62 43 11 31 26 36 167 51 7 1 12
-12 12 -34z m-6521 -36 c53 -29 98 -53 100 -55 2 -1 -6 -16 -18 -33 l-21 -29
-52 13 c-28 8 -55 12 -59 10 -4 -3 -10 -22 -14 -42 -11 -60 -23 -73 -92 -105
-98 -46 -99 -43 -3 197 37 94 38 95 52 95 6 0 54 -23 107 -51z m6921 41 c14
-8 17 -16 11 -42 -10 -41 -63 -165 -104 -240 -34 -62 -60 -74 -90 -40 -24 26
-9 73 58 188 94 162 87 154 125 134z m-1607 -39 c87 -21 159 -40 161 -42 2 -2
20 -31 40 -63 24 -38 34 -61 27 -66 -12 -7 -462 -32 -469 -25 -2 2 8 56 23
119 21 89 32 116 44 116 9 -1 87 -18 174 -39z m-1555 -3 c-3 -7 -11 -13 -18
-13 -7 0 -15 6 -17 13 -3 7 4 12 17 12 13 0 20 -5 18 -12z m-3521 -50 c32 -12
60 -23 62 -25 2 -1 -29 -120 -70 -263 -61 -215 -76 -260 -91 -260 -10 0 -18
-4 -18 -10 0 -5 10 -10 23 -10 26 0 42 -10 50 -30 4 -12 6 -12 6 2 1 17 6 17
49 2 9 -4 30 -8 46 -10 38 -5 115 -25 319 -81 l169 -47 -6 -40 c-4 -23 -11
-58 -17 -78 -9 -33 -12 -37 -37 -33 -15 3 -70 12 -122 20 -122 20 -370 85
-370 97 0 5 -5 6 -10 3 -17 -10 -50 5 -50 23 0 14 -2 14 -9 3 -8 -12 -20 -10
-73 14 -76 34 -198 111 -198 125 0 5 14 32 30 58 29 48 39 79 21 68 -5 -3 -23
-31 -41 -62 -17 -30 -34 -54 -39 -52 -23 9 -211 134 -211 140 0 8 115 175 134
196 10 10 37 6 140 -18 71 -17 134 -29 140 -27 10 4 2 9 -39 22 -9 2 -15 16
-15 35 0 17 -5 30 -12 30 -7 0 -31 5 -52 11 -47 13 -35 25 36 34 43 6 50 11
78 55 26 41 105 130 115 130 2 0 29 -10 62 -22z m1301 7 c1 -1 -10 -38 -25
-81 l-28 -79 -62 -3 -61 -3 -12 36 c-20 60 -7 83 63 115 43 20 71 27 92 23 17
-3 31 -6 33 -8z m4958 -27 c-11 -41 -14 -43 -56 -50 -25 -3 -68 -7 -97 -7
l-52 -1 11 33 c6 17 13 35 17 39 6 7 112 24 163 27 l27 1 -13 -42z m-4368 18
c10 -11 -102 -397 -126 -434 -10 -15 -62 -6 -62 10 0 5 25 104 55 220 30 116
55 213 55 216 0 6 70 -5 78 -12z m707 -33 c4 -19 2 -34 -5 -38 -12 -7 -258
-10 -265 -4 -2 2 0 20 4 39 l7 35 119 5 c66 3 123 3 126 0 4 -3 10 -19 14 -37z
m-285 31 c0 -16 -134 -540 -139 -546 -5 -6 -114 17 -133 28 -3 2 0 25 8 51 16
54 17 63 5 63 -5 0 -15 -25 -22 -55 -7 -30 -15 -55 -18 -55 -12 1 -224 59
-228 63 -2 3 12 54 33 113 20 60 38 115 40 123 3 10 8 11 18 2 13 -11 151 -61
168 -61 4 0 8 4 8 8 0 4 -31 18 -69 30 -38 13 -80 31 -92 41 l-23 18 19 69
c34 128 6 114 230 114 107 0 195 -3 195 -6z m585 -30 c127 -20 233 -40 238
-44 8 -7 -7 -98 -22 -135 l-9 -21 -188 19 c-104 10 -198 20 -210 22 -16 4 -24
19 -38 82 -10 43 -20 86 -22 96 -3 10 0 17 8 17 7 0 117 -16 243 -36z m2517
11 c143 -32 298 -72 305 -79 4 -3 1 -23 -5 -43 -6 -21 -16 -57 -22 -80 -10
-41 -13 -43 -48 -44 l-37 -1 34 -9 c31 -9 33 -13 27 -41 -3 -18 -8 -34 -11
-36 -6 -6 -147 29 -161 40 -7 5 -16 8 -20 6 -5 -1 -25 1 -45 5 -31 6 -38 13
-43 38 -3 18 -6 41 -6 53 0 12 -25 64 -55 115 -30 51 -55 95 -55 97 0 8 31 3
142 -21z m1383 -5 c39 -12 72 -24 74 -26 4 -4 -50 -167 -59 -178 -8 -8 -166
38 -183 54 -12 10 71 183 86 178 6 -3 44 -15 82 -28z m-6555 -41 c69 -18 126
-33 127 -34 6 -3 -69 -280 -77 -289 -9 -9 -290 61 -290 73 0 3 19 70 42 149
33 114 44 141 57 138 9 -3 72 -19 141 -37z m4314 -30 l244 -61 -14 -56 c-7
-32 -19 -81 -25 -110 -9 -40 -17 -53 -33 -57 -12 -2 -100 -9 -196 -15 -96 -6
-199 -13 -227 -16 l-53 -6 0 73 c0 81 38 309 52 309 5 0 118 -27 252 -61z
m-3474 26 c0 -14 7 -42 15 -62 23 -54 20 -63 -17 -57 -55 11 -69 31 -61 92 5
49 7 52 34 52 24 0 29 -4 29 -25z m-1288 -14 c16 -14 -23 -51 -54 -51 -27 0
-30 3 -24 23 3 12 6 28 6 35 0 10 9 12 33 7 17 -4 35 -10 39 -14z m6433 -81
c-9 -41 -18 -76 -21 -79 -2 -3 -44 15 -93 38 l-88 44 10 33 c10 32 11 33 86
39 42 3 83 7 91 9 28 5 31 -10 15 -84z m-3621 61 c22 -18 26 -60 7 -74 -10 -7
-25 -42 -35 -79 -14 -53 -22 -68 -37 -68 -27 0 -32 17 -19 65 7 24 10 49 7 57
-2 7 -13 -15 -22 -49 -17 -60 -19 -62 -46 -56 -17 3 -29 1 -29 -4 0 -6 15 -13
33 -16 17 -3 44 -10 59 -16 l27 -10 -15 -48 c-8 -26 -26 -88 -40 -138 -14 -49
-27 -95 -29 -102 -3 -8 -22 -6 -67 8 -97 30 -95 29 -78 39 10 6 6 9 -16 8 -29
-1 -104 19 -104 28 0 8 111 458 115 463 6 11 275 3 289 -8z m3502 -124 l92
-46 -20 -83 c-34 -150 -38 -160 -54 -154 -9 3 -74 6 -145 6 l-129 0 -6 25 c-3
14 -3 41 0 60 7 33 9 35 46 35 23 0 40 5 40 11 0 7 -9 9 -22 5 -13 -3 -35 -6
-50 -6 -27 0 -28 -2 -28 -50 l0 -50 -90 0 c-52 0 -90 4 -90 10 0 16 79 323 89
346 10 22 10 22 143 -21 73 -23 174 -63 224 -88z m-5556 83 c69 -17 127 -33
129 -35 2 -2 -13 -72 -34 -155 -31 -124 -40 -150 -54 -146 -9 3 -72 19 -141
37 -69 18 -128 35 -132 38 -4 4 8 67 28 141 44 171 41 162 61 156 10 -3 74
-19 143 -36z m4798 -29 c26 -45 32 -161 9 -161 -7 0 -136 -9 -286 -20 -151
-12 -279 -20 -286 -18 -10 2 -7 27 12 103 13 55 27 103 31 106 7 7 280 24 428
27 l70 2 22 -39z m-4070 -6 c29 -9 52 -20 52 -26 0 -18 -22 -104 -29 -111 -7
-8 -161 29 -174 41 -4 4 -4 28 -1 54 6 44 8 46 43 50 20 2 41 4 47 5 6 1 34
-5 62 -13z m-407 -55 l106 -32 -37 -147 c-26 -104 -41 -146 -51 -145 -15 1
-252 64 -256 68 -2 2 28 123 67 268 12 42 -7 43 171 -12z m-1148 19 c33 -9 47
-26 32 -41 -6 -6 -52 3 -130 23 l-39 11 24 14 c25 14 37 13 113 -7z m2942 -94
l34 -106 -22 -9 c-22 -10 -22 -10 2 -7 21 2 25 -6 46 -78 13 -44 38 -120 55
-168 l31 -88 -16 -112 c-14 -94 -21 -116 -43 -139 -25 -27 -29 -28 -134 -28
-93 0 -108 2 -108 16 0 22 71 278 79 284 3 3 7 21 8 40 1 19 0 30 -3 24 -4 -9
-17 -8 -51 2 -26 8 -48 16 -51 18 -2 3 2 30 9 61 10 44 16 55 28 49 9 -3 30
-11 46 -17 17 -5 42 -19 58 -29 24 -17 27 -25 27 -79 0 -53 -3 -61 -22 -69
-18 -7 -19 -9 -5 -9 20 -1 20 0 2 -76 -13 -54 -13 -76 0 -63 3 2 13 41 22 86
16 76 19 82 43 83 24 2 24 2 -3 6 -27 4 -27 5 -21 54 6 43 4 53 -16 74 -19 20
-21 32 -18 89 3 72 6 68 -60 81 -20 4 -32 12 -29 19 3 7 15 48 27 91 24 85 38
120 47 112 2 -3 20 -53 38 -112z m168 93 l107 -11 1 -31 1 -31 11 29 12 28 69
-6 c39 -4 71 -8 72 -9 2 -2 -25 -176 -31 -194 -3 -8 -24 -6 -77 9 -40 11 -113
23 -162 26 l-89 7 -23 74 c-36 119 -37 121 -17 121 10 0 66 -5 126 -12z
m-1694 -92 c73 -19 135 -37 138 -40 3 -3 -20 -35 -51 -71 -31 -36 -56 -72 -56
-79 0 -17 48 -61 57 -53 3 4 -4 18 -17 32 l-23 24 59 68 c32 37 59 70 60 71 2
2 28 -4 59 -13 42 -12 55 -20 51 -31 -16 -43 -57 -207 -52 -211 7 -8 22 32 49
133 12 46 27 84 34 84 16 0 194 -48 200 -54 3 -3 -14 -85 -38 -183 -44 -182
-55 -304 -35 -405 7 -37 6 -38 -25 -38 l-31 0 6 54 c6 46 4 58 -12 74 -11 11
-24 21 -30 23 -7 3 -6 23 4 64 16 71 17 75 5 75 -5 0 -14 -29 -21 -65 -7 -36
-15 -65 -19 -65 -18 1 -163 39 -168 43 -3 4 2 47 12 98 13 68 15 93 6 98 -6 4
-94 29 -194 56 -100 26 -183 49 -185 50 -6 5 71 295 78 295 3 0 66 -16 139
-34z m6345 15 c15 -17 16 -25 6 -55 -7 -21 -16 -33 -24 -30 -7 3 -25 0 -40 -6
-23 -9 -27 -8 -23 4 3 8 9 32 13 53 4 21 9 41 11 46 8 14 40 7 57 -12z m-1079
-101 c-2 -8 -20 -87 -40 -175 -31 -136 -44 -172 -82 -237 -25 -43 -49 -80 -54
-84 -7 -4 -111 62 -152 96 -4 4 3 32 16 62 28 62 63 180 103 340 l26 107 94
-47 c68 -33 93 -51 89 -62z m-877 51 c63 -16 116 -32 119 -34 5 -6 -36 -200
-47 -217 -5 -7 -43 -1 -124 21 -102 28 -119 36 -131 60 -13 25 -12 35 18 113
17 47 37 86 42 86 6 0 61 -13 123 -29z m-5384 -36 c71 -19 131 -37 134 -40 6
-5 -23 -140 -39 -181 l-8 -22 -83 19 c-150 34 -208 52 -208 63 0 11 10 52 36
144 8 28 20 52 27 52 7 0 70 -16 141 -35z m5216 25 c0 -11 -77 -180 -82 -180
-2 0 -124 -9 -273 -20 -148 -10 -271 -17 -273 -15 -7 6 29 159 39 170 6 6 137
20 292 31 155 12 285 22 290 23 4 0 7 -3 7 -9z m-620 -45 c0 -18 -84 -342 -91
-349 -14 -15 -272 111 -311 152 -30 32 -96 158 -86 167 3 3 376 31 446 34 23
0 42 -1 42 -4z m1851 -67 c143 -68 148 -72 142 -97 -14 -60 -37 -110 -97 -220
-35 -64 -83 -152 -106 -196 -24 -44 -44 -82 -46 -83 -4 -6 -234 146 -234 154
0 4 20 42 45 84 38 65 51 103 85 246 22 93 40 172 40 177 0 15 26 5 171 -65z
m-3738 15 c4 -21 2 -42 -5 -50 -8 -10 -3 -13 28 -12 34 0 36 2 17 9 -18 7 -23
17 -23 45 0 19 5 35 11 35 19 0 174 -41 181 -49 10 -9 -21 -189 -39 -223 -13
-27 -17 -28 -87 -28 -47 0 -77 5 -83 13 -10 13 -63 152 -63 166 0 4 10 13 23
19 21 11 21 11 -4 6 -23 -5 -27 -1 -37 34 -20 66 -17 72 32 72 42 0 44 -1 49
-37z m-2405 -9 c76 -20 141 -40 145 -44 7 -6 -35 -196 -45 -205 -3 -2 -253 67
-285 79 -8 3 -4 34 14 105 14 56 28 101 30 101 3 0 66 -16 141 -36z m2180 11
c3 -2 1 -29 -2 -59 l-7 -55 -42 16 c-58 22 -60 25 -46 73 l13 42 40 -6 c22 -4
42 -9 44 -11z m1636 -67 c19 -40 49 -87 67 -104 19 -17 96 -60 172 -94 75 -35
137 -67 137 -72 0 -5 -10 -47 -21 -94 -18 -69 -25 -84 -38 -79 -9 3 -113 44
-232 91 l-215 84 -22 44 c-11 24 -24 70 -27 103 -6 54 -4 61 26 107 31 47 80
86 107 86 7 0 28 -33 46 -72z m-2321 -5 c154 -40 217 -60 217 -70 0 -14 -46
-183 -91 -337 l-20 -68 -122 5 c-82 4 -109 3 -82 -3 22 -5 72 -9 112 -9 39 -1
75 -5 78 -11 7 -12 -33 -151 -48 -167 -9 -9 -52 -4 -183 20 l-172 31 -11 32
c-6 17 -14 80 -18 140 -6 104 -4 118 36 289 54 230 50 218 69 210 10 -4 115
-32 235 -62z m3892 9 c4 -20 -4 -48 -26 -97 -29 -65 -31 -73 -24 -151 l7 -81
-32 -7 c-18 -3 -48 -6 -66 -6 l-34 0 0 97 c0 85 -3 99 -21 120 -21 21 -21 26
-9 82 l13 60 56 4 c137 8 129 10 136 -21z m-5072 -33 c61 -16 117 -32 124 -34
8 -2 -1 -52 -28 -162 -22 -87 -41 -163 -43 -169 -4 -11 -259 16 -272 29 -12
11 78 367 93 367 7 0 64 -14 126 -31z m4567 27 c0 -2 20 -77 45 -167 24 -90
43 -164 42 -164 -1 -1 -51 -14 -112 -29 -60 -15 -115 -32 -122 -38 -15 -12
-17 -38 -3 -38 6 0 10 7 10 15 0 8 2 15 4 15 2 0 53 13 115 29 61 16 113 26
115 23 2 -4 15 -46 29 -94 18 -60 23 -96 18 -115 -8 -27 -10 -28 -67 -26 -42
2 -53 0 -39 -7 11 -5 29 -9 40 -9 44 -2 49 -14 35 -80 -8 -37 -18 -61 -26 -61
-7 0 -104 32 -215 70 -112 39 -204 70 -206 70 -11 0 9 40 100 207 57 103 129
236 161 296 31 59 61 107 67 107 5 0 9 -2 9 -4z m703 -3 c71 -4 97 -10 97 -20
0 -7 -10 -14 -22 -14 -17 -1 -19 -2 -5 -6 20 -5 20 -3 6 -56 l-10 -42 -105 3
c-78 3 -104 1 -104 -9 0 -9 19 -10 75 -6 41 4 86 2 100 -3 l26 -10 -22 -41
-21 -41 -121 5 c-67 4 -123 6 -124 7 -1 0 -4 13 -8 28 -4 19 3 47 21 88 15 32
29 61 31 63 1 3 14 -6 28 -19 32 -30 32 -17 0 22 -51 60 -39 64 158 51z m-810
-118 c-24 -47 -52 -89 -61 -94 -20 -10 -470 -36 -478 -28 -4 3 -1 29 6 56 10
41 16 51 33 51 20 0 20 1 3 13 -15 11 -16 18 -8 34 10 19 27 21 204 32 106 7
198 14 203 16 6 2 40 4 76 4 l66 1 -44 -85z m255 49 c53 -15 100 -30 105 -34
6 -5 -28 -145 -81 -330 l-16 -55 -23 75 c-46 148 -101 370 -92 370 5 0 53 -12
107 -26z m-4189 -100 c4 -4 -33 -196 -49 -256 -10 -35 -11 -36 -53 -31 -62 7
-350 53 -353 56 -3 3 75 318 81 327 4 6 364 -86 374 -96z m991 77 c14 -10 60
-28 103 -41 63 -19 77 -27 78 -44 1 -17 2 -18 6 -3 5 20 2 20 44 6 65 -21 66
-21 39 -29 -23 -7 -23 -8 -3 -9 l21 -1 -20 -72 c-11 -40 -22 -75 -23 -76 -2
-2 -15 18 -29 45 -14 26 -25 44 -26 40 0 -4 11 -30 25 -57 25 -50 25 -51 9
-113 -9 -34 -19 -66 -24 -72 -4 -5 -11 -27 -14 -49 l-7 -38 -42 6 c-55 9 -59
14 -46 60 6 21 8 40 6 42 -2 3 -10 -16 -16 -41 -9 -36 -15 -45 -29 -41 -9 3
-71 19 -137 37 -66 17 -122 33 -124 35 -2 2 9 49 25 105 l29 101 35 -6 c19 -3
52 -8 73 -12 36 -6 37 -6 37 24 0 29 -3 31 -56 43 -63 14 -70 24 -55 71 5 18
15 52 21 76 11 42 12 43 43 37 18 -4 43 -15 57 -24z m3370 -108 c0 -45 -4 -48
-48 -36 -26 6 -26 25 -2 87 10 28 11 28 30 11 14 -13 20 -31 20 -62z m-2394
32 c32 -50 -1 -355 -71 -651 -4 -20 -7 -20 -72 -10 l-68 12 4 136 c3 135 3
136 -26 190 -20 36 -28 60 -23 73 4 11 10 65 14 120 9 129 18 143 93 148 136
8 131 9 149 -18z m-256 -94 c0 -62 -11 -141 -19 -141 -7 0 -111 172 -111 183
0 4 29 7 65 7 l65 0 0 -49z m2132 -23 c-16 -29 -59 -108 -96 -175 -37 -68 -73
-123 -79 -123 -15 0 -320 119 -329 129 -7 6 34 177 46 188 5 5 338 29 434 32
l54 1 -30 -52z m518 -2 c0 -11 -12 -76 -27 -143 -23 -104 -30 -123 -47 -126
-12 -2 70 -5 182 -6 l203 -1 -7 -37 c-15 -81 -41 -95 -285 -147 -91 -20 -127
-24 -168 -17 -28 4 -53 10 -56 13 -3 2 25 116 60 253 36 137 65 250 65 251 0
1 18 -3 40 -8 31 -8 40 -15 40 -32z m-3437 18 c22 -4 37 -12 37 -20 0 -17 -8
-17 -66 -3 -27 7 -44 17 -44 26 0 9 7 12 18 9 9 -3 34 -8 55 -12z m3822 -6
c-4 -13 -15 -36 -24 -53 -16 -29 -20 -30 -94 -33 l-76 -3 -21 40 c-36 71 -35
71 101 71 120 0 120 0 114 -22z m-3141 -92 c31 -52 56 -99 56 -104 0 -16 -45
-22 -94 -13 -26 5 -50 11 -53 15 -9 8 18 207 27 201 4 -2 33 -47 64 -99z m621
34 c48 -33 51 -48 35 -160 -20 -142 -25 -155 -70 -175 -35 -16 -111 -17 -126
-2 -4 4 39 302 51 355 5 20 10 23 38 17 18 -4 50 -19 72 -35z m860 -51 c116
-45 211 -83 213 -84 4 -3 -19 -95 -24 -95 -1 0 -101 36 -220 80 -120 44 -219
80 -221 80 -5 0 8 92 14 103 3 5 10 6 17 4 6 -3 106 -42 221 -88z m1778 34
c45 -32 129 -89 187 -126 58 -38 104 -73 102 -79 -1 -5 -34 -57 -73 -115 l-71
-105 -26 24 c-15 13 -84 75 -154 137 -110 97 -128 117 -128 143 0 34 57 178
71 178 5 0 47 -26 92 -57z m-6133 32 l45 -15 -40 6 c-22 3 -47 10 -55 15 -23
13 0 10 50 -6z m58 -41 c59 -14 117 -27 130 -30 32 -6 27 -29 -13 -54 -19 -12
-47 -42 -61 -66 l-26 -44 -36 19 c-20 11 -59 39 -86 63 -49 43 -49 44 -42 91
4 26 12 47 17 47 5 0 58 -12 117 -26z m5627 -34 c0 -44 -1 -45 -33 -48 -33 -3
-34 -3 -27 30 13 64 16 69 38 66 19 -3 22 -9 22 -48z m115 10 l11 -40 64 0
c35 0 66 -4 70 -9 3 -5 2 -35 -1 -65 l-7 -56 -170 0 -170 0 7 42 c9 56 11 58
57 58 l39 0 0 55 0 55 45 0 c43 0 44 -1 55 -40z m-4444 -11 c109 -26 134 -41
133 -83 -1 -64 -7 -67 -74 -40 -33 14 -86 31 -119 39 -32 7 -60 16 -63 18 -7
8 17 87 27 87 4 0 48 -9 96 -21z m4614 17 c0 -29 -16 -36 -81 -36 -62 0 -69 2
-69 20 0 18 7 20 75 20 41 0 75 -2 75 -4z m1710 -21 c0 -22 -4 -25 -34 -25
-32 0 -35 -3 -38 -32 l-3 -33 -103 -19 c-56 -10 -105 -16 -108 -13 -3 3 -8 23
-11 44 l-5 39 138 31 c174 38 164 38 164 8z m-7242 -40 c19 -5 22 -12 23 -53
l2 -47 6 42 c4 24 9 44 12 47 4 4 578 -79 584 -85 2 -2 -6 -42 -16 -89 -40
-172 -31 -156 -107 -180 -102 -34 -130 -54 -158 -118 -14 -31 -26 -57 -28 -59
-1 -2 -45 11 -97 27 -110 35 -99 32 -99 20 0 -5 39 -21 88 -36 48 -14 92 -30
98 -35 14 -11 39 -240 30 -274 -7 -26 10 -36 20 -12 2 7 -2 75 -11 150 -15
136 -15 137 8 193 26 67 58 94 148 123 66 22 67 22 100 2 19 -10 51 -24 71
-31 21 -6 40 -15 43 -20 3 -4 12 -91 20 -192 8 -100 18 -202 21 -225 l5 -43
76 0 c82 0 243 33 283 58 14 8 50 37 80 63 30 26 85 65 121 87 l66 40 92 -111
c51 -60 94 -115 95 -122 1 -7 9 -24 19 -38 21 -32 21 -37 2 -37 -17 0 -21 -35
-5 -45 6 -3 7 1 4 10 -4 10 1 21 12 30 18 13 18 14 -4 44 -45 61 -13 29 81
-83 53 -62 117 -143 142 -179 40 -58 46 -72 43 -109 l-3 -42 -59 -18 c-55 -17
-64 -17 -113 -3 l-53 16 -2 59 c-1 33 -2 68 -2 78 -1 12 9 19 39 23 l40 6 -43
2 -43 1 4 53 c2 28 2 42 0 30 -2 -13 -12 -23 -21 -23 -12 0 -13 -3 -4 -12 7
-7 12 -20 12 -29 0 -19 -42 -27 -175 -32 l-69 -2 -12 60 -13 60 3 -61 2 -62
-45 -6 c-25 -3 -103 -8 -173 -12 l-127 -7 -3 38 c-2 24 -9 40 -18 42 -12 4
-12 2 -2 -5 14 -10 13 -16 -20 -149 -15 -58 -26 -83 -36 -83 -8 0 -160 39
-336 86 -177 47 -347 88 -379 91 -32 3 -105 0 -163 -7 -87 -10 -111 -10 -131
1 -19 10 -31 10 -55 1 l-30 -11 6 87 c4 48 10 138 14 201 5 81 12 116 21 119
10 3 10 6 1 12 -16 10 5 112 65 315 48 165 63 229 46 205 -9 -13 -13 -12 -26
8 -9 12 -24 22 -33 22 -9 0 -34 5 -54 11 -30 8 -38 15 -38 33 0 22 3 23 53 18
75 -7 55 3 -42 22 -46 8 -85 17 -87 19 -3 3 11 111 21 153 l5 21 92 -18 c51
-10 103 -21 116 -24z m2 25 c20 -6 21 -8 5 -8 -11 0 -29 3 -40 8 -25 11 1 11
35 0z m282 -35 c237 -33 347 -51 355 -59 3 -3 -1 -6 -10 -6 -21 0 -569 80
-582 85 -30 11 76 2 237 -20z m3588 -50 c113 -41 210 -77 217 -80 16 -6 -4
-65 -22 -65 -37 0 -309 97 -367 131 -64 38 -67 41 -56 64 6 14 14 25 17 25 4
0 99 -34 211 -75z m3375 56 c9 -16 -17 -61 -37 -61 -25 0 -26 57 0 63 28 8 31
7 37 -2z m-7724 -37 c18 -20 54 -46 79 -59 44 -23 44 -24 15 -24 -30 0 -153
23 -160 31 -6 6 17 88 24 88 4 0 23 -16 42 -36z m231 -44 l-8 -45 -39 3 c-22
2 -42 5 -44 7 -8 8 43 83 67 98 25 15 27 15 30 -1 1 -9 -1 -37 -6 -62z m4612
-39 c111 -43 290 -109 398 -146 119 -41 195 -72 193 -79 -2 -6 -14 -53 -25
-103 -13 -57 -27 -93 -34 -93 -7 0 -111 31 -232 69 -120 38 -239 73 -264 78
-41 8 -45 11 -48 40 -3 25 -10 34 -34 42 -38 13 -48 14 -48 2 0 -5 14 -12 31
-16 31 -7 48 -30 33 -45 -12 -11 -211 33 -250 56 l-31 17 32 61 c17 34 40 91
50 129 10 37 20 67 23 67 3 0 96 -35 206 -79z m-1970 63 c38 -6 46 -10 47 -28
0 -20 0 -20 9 2 5 12 14 22 19 22 5 0 16 2 23 5 10 4 21 -8 33 -34 15 -35 17
-58 12 -173 -5 -108 -34 -348 -62 -525 l-6 -31 -47 12 c-46 13 -128 47 -284
120 l-76 36 8 32 c18 73 21 94 10 76 -18 -29 -40 -112 -32 -119 16 -16 302
-143 357 -159 67 -19 65 -15 50 -127 -6 -40 -8 -43 -38 -44 l-32 -1 33 -9 c31
-9 39 -19 26 -31 -3 -4 -50 9 -105 27 -154 52 -176 53 -264 14 -41 -19 -75
-37 -75 -41 0 -14 20 -8 80 22 73 37 114 40 116 7 1 -12 13 -47 28 -76 14 -30
26 -55 26 -56 0 -1 -22 -12 -50 -25 -27 -13 -50 -27 -50 -32 0 -12 6 -10 60
17 l49 25 16 -23 c15 -21 14 -23 -6 -37 -12 -8 -63 -33 -113 -55 l-91 -42 -70
24 c-68 24 -71 26 -115 95 -41 64 -160 211 -385 478 -136 160 -266 354 -297
443 l-28 79 22 -5 c13 -3 91 -18 174 -33 l151 -27 7 -70 c3 -38 5 -71 3 -73
-2 -2 -28 -8 -57 -14 -30 -6 -59 -15 -65 -21 -7 -9 -2 -10 18 -5 15 3 46 9 70
12 l42 6 33 -67 c25 -50 30 -71 22 -79 -8 -8 -17 -3 -33 19 -41 55 -65 80 -72
73 -4 -4 12 -31 35 -60 l42 -53 -33 -27 c-59 -49 -21 -42 44 8 54 41 61 51 50
63 -8 7 -29 43 -47 80 -25 50 -34 83 -38 138 -6 81 5 100 50 95 15 -3 22 0 18
7 -4 6 -14 11 -22 11 -18 0 -18 14 1 77 l15 52 93 -26 c50 -14 94 -27 97 -30
6 -6 -36 -38 -75 -57 -16 -9 -24 -16 -17 -16 14 0 94 48 104 63 11 18 405 -99
401 -119 -1 -5 -5 -22 -8 -37 -4 -16 -3 -27 3 -27 6 0 13 13 17 30 4 16 10 32
15 35 4 3 6 14 3 26 -4 12 -9 16 -12 10 -5 -7 -40 0 -107 23 -105 35 -105 35
-84 92 9 23 13 24 120 24 80 0 110 -3 110 -12 0 -7 15 2 32 20 36 35 35 35
102 26z m1519 -119 c81 -26 147 -50 147 -54 0 -13 -142 -241 -150 -241 -14 1
-375 292 -372 301 1 6 21 35 43 65 l41 54 72 -39 c39 -22 137 -60 219 -86z
m-3088 88 c38 -9 97 -27 130 -41 33 -14 85 -30 115 -36 l55 -12 32 -92 c26
-74 51 -120 123 -222 49 -70 90 -130 90 -133 0 -3 -35 -27 -77 -55 -43 -27
-104 -72 -136 -100 -50 -43 -71 -53 -140 -70 -45 -11 -118 -24 -163 -27 l-81
-7 -6 63 c-4 35 -11 134 -18 219 -6 85 -14 165 -19 176 -6 15 -27 28 -62 39
-85 28 -84 26 -54 156 39 171 39 169 95 163 25 -3 77 -12 116 -21z m6485 19
c0 -13 -12 -22 -22 -16 -10 6 -1 24 13 24 5 0 9 -4 9 -8z m-1631 -151 c78 -69
140 -128 139 -131 -2 -4 -34 -35 -71 -70 l-68 -63 -24 24 c-13 13 -60 64 -104
113 l-80 89 21 30 c13 19 23 51 26 84 3 30 8 53 13 51 4 -2 71 -59 148 -127z
m-6139 94 c51 -11 77 -12 91 -5 13 7 25 7 38 0 11 -5 32 -10 48 -10 15 0 45
-5 66 -11 34 -9 37 -13 37 -46 0 -36 0 -36 -37 -30 -21 4 -63 9 -93 13 -56 6
-56 6 -74 -28 -16 -30 -98 -98 -118 -98 -15 0 -62 76 -60 99 4 72 14 131 22
131 5 0 41 -7 80 -15z m6459 -37 c-16 -41 -20 -66 -15 -108 l6 -55 -139 -92
c-77 -51 -144 -93 -149 -93 -5 0 -12 -6 -15 -12 -2 -7 -26 -28 -53 -46 l-49
-34 40 38 c22 21 81 76 131 123 62 59 116 124 173 209 46 67 85 122 87 122 2
0 -6 -24 -17 -52z m-2264 -200 l169 -133 12 -58 c8 -43 9 -59 0 -62 -78 -24
-166 -37 -213 -32 -30 3 -57 8 -60 11 -3 3 -8 25 -10 50 -5 44 -7 46 -55 62
-27 9 -52 13 -55 10 -5 -5 25 -20 80 -39 12 -5 17 -17 17 -42 0 -41 4 -41
-102 -1 l-57 21 34 72 c53 114 55 103 -36 142 l-80 34 67 68 67 68 26 -19 c14
-10 102 -78 196 -152z m-770 102 c7 -11 -23 -171 -34 -182 -7 -8 -80 9 -93 21
-4 4 4 44 19 89 l27 82 38 0 c20 0 40 -5 43 -10z m3533 -150 c18 -83 30 -154
28 -159 -5 -7 -173 -45 -193 -43 -7 1 -75 304 -70 308 3 2 181 42 193 43 5 1
25 -67 42 -149z m-1013 105 c23 -31 25 -38 13 -52 -24 -29 -90 -51 -255 -83
l-162 -33 -66 18 c-44 12 -64 22 -61 31 3 7 8 29 12 49 l7 37 63 -7 c43 -4 88
-1 144 10 45 9 88 14 95 11 8 -3 15 -1 17 3 3 8 128 48 154 50 7 1 24 -15 39
-34z m792 -157 c17 -84 30 -154 28 -156 -3 -4 -174 -42 -185 -42 -4 0 -17 23
-30 50 -13 28 -25 50 -27 50 -15 0 -173 -74 -173 -81 0 -13 4 -12 77 21 36 17
72 30 79 30 13 0 44 -48 44 -68 0 -5 -39 -24 -86 -42 -47 -19 -123 -59 -169
-92 -75 -52 -85 -56 -94 -41 -5 10 -13 15 -16 11 -4 -4 11 -35 34 -70 36 -55
39 -64 23 -70 -14 -5 -14 -7 -1 -7 28 -2 29 11 2 56 -14 24 -24 45 -22 47 85
65 201 130 284 160 83 29 483 122 490 113 4 -3 44 -182 42 -183 -1 -1 -110
-25 -241 -53 -224 -48 -256 -56 -245 -64 130 -98 152 -101 359 -53 84 20 155
36 156 36 2 0 4 -9 4 -19 0 -11 5 -23 10 -26 6 -4 10 6 10 23 0 27 4 30 53 40
82 16 165 72 257 173 l82 89 36 -29 c21 -17 61 -52 90 -78 l54 -48 -56 -120
c-41 -88 -65 -129 -93 -153 -86 -74 -428 -242 -492 -242 -16 0 -44 19 -80 53
-49 47 -65 56 -131 72 -118 28 -177 53 -292 122 -89 53 -108 68 -108 88 0 13
10 31 22 39 12 9 17 16 10 16 -6 0 -32 -16 -58 -35 -25 -19 -38 -35 -30 -35
16 0 56 -34 56 -47 0 -5 -37 -9 -83 -9 -46 -1 -150 -11 -232 -24 l-150 -22
-200 45 c-248 56 -298 61 -455 43 -122 -13 -130 -13 -340 15 -261 35 -269 37
-249 51 10 7 9 8 -6 2 -28 -11 -74 -8 -145 10 -53 14 -76 29 -176 113 -63 53
-113 97 -112 99 15 14 195 46 289 51 136 7 145 5 369 -78 85 -31 208 -71 272
-88 139 -37 226 -40 452 -14 l149 16 71 -77 c90 -98 118 -116 176 -115 l45 1
-36 7 c-20 4 -51 16 -69 27 -33 19 -157 151 -149 158 2 3 81 13 174 24 l171
19 72 48 c62 41 86 65 67 65 -3 0 -39 -22 -80 -50 l-74 -50 -132 -15 c-72 -9
-134 -14 -136 -11 -8 8 115 76 137 76 12 0 114 66 231 150 208 149 210 150
219 125 28 -70 33 -80 37 -64 2 9 -5 40 -17 69 -11 29 -19 54 -18 55 4 4 201
63 214 64 5 1 24 -68 41 -151z m-2154 118 c40 -13 123 -34 183 -46 60 -12 207
-53 327 -91 120 -38 223 -69 230 -69 38 -1 39 -15 12 -129 -15 -61 -27 -111
-28 -111 -26 1 -257 74 -392 123 -202 74 -269 85 -414 67 -47 -5 -86 -8 -88
-6 -2 1 -8 27 -14 58 l-11 55 53 86 c30 47 57 86 61 87 4 0 41 -11 81 -24z
m-680 -30 c37 -16 67 -34 67 -40 0 -6 -15 -44 -34 -83 l-35 -72 -88 38 c-48
21 -97 41 -107 45 -17 6 -11 16 49 76 38 39 72 69 75 68 4 -2 36 -16 73 -32z
m2157 -56 l61 -69 -65 -61 c-36 -34 -68 -70 -71 -80 -6 -20 -93 -77 -158 -104
-37 -15 -38 -15 -47 7 -7 17 -9 18 -9 5 -1 -11 -9 -18 -20 -18 -11 0 -21 -4
-23 -9 -4 -11 -185 -34 -199 -26 -13 8 -11 52 2 61 6 4 59 13 118 20 81 10
107 10 113 1 6 -9 8 -9 8 -1 0 7 21 16 48 22 44 9 45 10 12 11 -19 1 -95 -6
-167 -16 -73 -9 -135 -15 -137 -12 -2 2 -2 25 1 51 l5 47 67 11 c36 6 84 13
106 15 79 10 195 32 202 38 11 11 -20 8 -183 -18 -185 -30 -194 -30 -195 -7
-1 16 -2 16 -6 0 -6 -22 -15 -22 -82 -2 l-53 15 6 42 c4 23 9 43 12 46 2 3 30
-2 61 -10 46 -12 59 -20 64 -39 7 -24 7 -24 8 -2 1 12 3 22 5 22 5 0 139 27
174 35 16 4 22 1 23 -12 1 -17 2 -17 6 -1 2 10 14 20 26 23 12 3 44 9 70 15
51 11 121 43 132 60 11 18 22 11 85 -60z m-2937 -15 c35 -5 47 -10 47 -23 0
-22 -30 -265 -33 -268 -4 -4 -122 19 -128 25 -4 3 1 62 12 131 10 69 19 131
19 138 0 8 7 11 18 9 9 -3 38 -8 65 -12z m3247 -9 c0 -4 -261 -191 -285 -205
-38 -21 76 67 169 131 116 80 116 81 116 74z m-3075 -30 c36 -11 40 -15 38
-43 -2 -17 -7 -43 -13 -58 l-10 -27 -40 42 c-28 29 -40 36 -40 25 0 -10 11
-26 25 -37 14 -11 25 -29 25 -41 0 -34 -39 -149 -57 -169 -23 -25 -8 -35 19
-12 20 18 21 18 15 1 -4 -10 -7 -23 -7 -28 0 -10 -53 -12 -88 -2 -20 5 -23 11
-18 33 3 15 12 83 21 151 25 204 21 191 58 183 17 -3 50 -12 72 -18z m279 -26
c5 0 6 -27 3 -60 -3 -33 -1 -60 4 -60 5 0 9 25 9 55 0 50 2 55 23 55 12 0 72
-21 132 -46 215 -89 320 -124 405 -136 l85 -11 112 -95 111 -94 -31 -28 c-33
-29 -283 -140 -314 -140 -34 0 -113 29 -146 53 -21 17 -65 32 -132 45 -110 23
-360 39 -335 22 8 -5 55 -10 103 -10 85 0 262 -29 319 -51 15 -6 34 -19 43
-29 9 -10 50 -27 90 -36 l74 -17 145 63 c80 35 155 74 167 87 35 36 59 31 59
-14 0 -66 -53 -462 -62 -457 -4 3 -8 15 -8 27 -1 30 -34 101 -59 126 -33 33
-66 27 -96 -16 -14 -21 -25 -41 -25 -45 0 -17 16 -6 39 27 33 49 60 46 89 -9
49 -92 72 -259 38 -272 -11 -4 -656 155 -825 203 l-53 15 6 60 c4 33 10 66 13
74 3 8 1 14 -4 14 -6 0 -15 -30 -21 -66 -6 -37 -13 -69 -16 -72 -3 -3 -33 3
-67 13 l-61 19 5 60 c2 34 7 70 11 81 6 17 1 24 -29 38 -41 20 -45 20 -45 7 0
-5 14 -17 30 -25 28 -14 33 -42 6 -32 -38 15 -56 17 -56 9 0 -6 14 -15 30 -21
37 -12 43 -26 33 -72 l-8 -35 -155 59 c-85 33 -157 62 -159 64 -9 7 19 117 31
129 18 17 190 -7 343 -47 158 -41 172 -44 160 -31 -18 19 -239 72 -382 92 -76
11 -160 25 -187 32 l-48 13 6 59 c3 33 8 61 10 63 2 2 70 -4 151 -13 117 -14
148 -15 154 -5 5 7 19 51 32 97 18 64 27 83 39 79 56 -16 73 -17 81 -4 19 30
9 50 -31 66 -56 22 -51 36 10 28 39 -5 50 -4 50 7 0 9 -13 13 -39 13 -22 0
-43 3 -46 7 -3 3 -1 26 6 51 11 45 12 46 53 49 22 2 59 0 81 -4 22 -4 44 -7
49 -8z m4192 -35 c11 -44 1 -50 -119 -69 -129 -20 -157 -17 -157 19 0 28 -3
26 145 54 130 25 124 25 131 -4z m-2293 -46 l37 -10 0 -94 0 -95 -90 0 c-55 0
-90 4 -90 10 0 10 37 169 46 199 4 13 10 13 97 -10z m1967 -4 l23 -24 -82 -90
c-89 -97 -157 -144 -244 -167 -28 -7 -53 -12 -55 -9 -2 2 -8 23 -13 46 -12 50
-7 55 63 64 59 8 141 67 212 150 26 30 53 55 60 55 7 0 23 -11 36 -25z m40 21
c0 -11 -19 -15 -25 -6 -3 5 1 10 9 10 9 0 16 -2 16 -4z m-4076 -96 c14 -5 26
-17 26 -26 0 -13 -6 -15 -32 -10 -38 7 -53 20 -44 35 9 14 18 14 50 1z m-320
-76 l48 -7 -5 -35 c-4 -19 -8 -36 -10 -38 -4 -5 -118 14 -125 20 -2 3 -1 21 2
41 6 28 11 35 24 31 9 -3 39 -8 66 -12z m3960 -62 c3 -5 8 -26 11 -48 l7 -39
-149 -33 c-189 -41 -219 -41 -278 0 -24 17 -43 34 -40 36 5 6 395 90 422 91
12 1 24 -3 27 -7z m-644 -162 c0 -13 -5 -18 -15 -14 -12 5 -13 10 -4 20 15 19
19 18 19 -6z m-3655 -41 c7 -7 3 -16 -14 -30 -13 -10 -27 -19 -31 -19 -7 0
-30 53 -30 68 0 8 64 -8 75 -19z m294 -20 c16 -7 21 -14 16 -27 -3 -9 -11 -38
-16 -64 -11 -50 -27 -62 -36 -28 -3 10 -15 26 -27 34 -18 11 -22 22 -19 48 8
65 8 64 82 37z m-194 -8 c37 -13 51 -23 53 -39 2 -12 -2 -22 -8 -22 -6 0 -21
-10 -33 -23 -12 -13 -38 -33 -57 -45 l-36 -21 -28 51 -28 50 33 33 c40 38 40
38 104 16z m3670 -39 c-8 -9 -95 34 -95 46 0 9 16 4 49 -15 28 -15 48 -29 46
-31z m-3571 -95 c14 -22 -5 -41 -33 -32 -23 7 -27 25 -9 43 15 15 28 11 42
-11z m-860 -84 c3 -42 6 -93 6 -114 0 -35 -2 -38 -32 -43 -74 -12 -202 -26
-205 -23 -1 2 -6 58 -10 125 l-6 121 64 4 c35 2 89 4 120 5 l56 2 7 -77z
m-260 0 c3 -32 7 -85 8 -118 l3 -60 -49 -6 c-37 -4 -88 4 -205 32 -86 20 -156
41 -155 45 1 5 9 39 18 76 l18 67 61 5 c93 9 145 12 224 14 l71 2 6 -57z
m-739 -64 c209 -55 381 -104 383 -109 2 -4 11 -6 20 -3 9 2 65 -8 124 -22 59
-14 132 -25 162 -25 l55 0 -30 -87 c-33 -99 -32 -93 -20 -93 5 0 23 42 40 93
l32 94 115 12 c64 7 118 11 120 8 2 -2 7 -79 11 -170 l6 -167 41 0 c23 0 58
-3 79 -6 36 -7 37 -7 38 -53 1 -38 2 -42 9 -21 4 14 8 121 9 238 l1 212 28 0
c37 0 88 -33 106 -68 35 -68 32 -178 -25 -891 -16 -206 -31 -377 -34 -379 -4
-5 -288 18 -294 23 -5 6 87 125 137 177 25 26 43 51 39 55 -11 10 -82 -63
-144 -149 -31 -43 -60 -78 -65 -78 -14 0 -108 55 -108 63 0 4 18 40 39 80 64
119 63 164 -8 231 -47 45 -49 22 -2 -29 54 -59 53 -84 -5 -191 -52 -95 -48
-94 -137 -46 -26 14 -50 22 -54 18 -4 -4 -1 -12 7 -17 13 -8 11 -13 -9 -27
-46 -32 -66 -50 -60 -56 3 -3 29 10 57 30 l52 35 105 -52 c58 -29 105 -56 105
-60 0 -7 -57 -36 -188 -94 -92 -41 -98 -58 -112 -285 -19 -323 -38 -363 -206
-426 l-64 -24 -32 20 c-37 22 -102 26 -134 7 -42 -24 -122 -106 -148 -154 -15
-26 -38 -87 -51 -135 -13 -49 -36 -106 -54 -131 -27 -40 -37 -46 -98 -62 -59
-16 -107 -18 -358 -16 -266 2 -296 0 -360 -19 -38 -11 -73 -20 -78 -20 -4 0
-4 37 -1 83 4 57 1 117 -11 195 l-18 114 73 73 72 73 54 198 c71 263 72 304 9
407 -25 41 -45 80 -45 86 0 16 60 121 70 121 4 0 53 -67 109 -150 87 -128 121
-169 121 -145 0 3 -49 77 -110 166 -92 135 -108 164 -100 180 6 10 13 19 16
19 3 0 77 -37 165 -82 114 -60 159 -88 159 -101 0 -9 -18 -54 -41 -98 -22 -44
-38 -86 -36 -92 6 -17 97 168 97 196 0 21 -22 35 -170 111 l-169 87 82 165 82
165 22 -27 c11 -15 54 -82 95 -150 40 -68 78 -123 83 -124 22 0 283 179 290
199 7 24 14 13 -97 173 -49 69 -88 130 -88 135 0 4 22 22 48 39 l48 32 29 -47
c87 -139 119 -184 122 -174 2 6 -25 59 -61 116 -36 57 -66 109 -66 114 0 11
88 83 100 83 4 0 30 -36 58 -80 28 -44 56 -80 62 -80 16 0 13 6 -45 93 l-56
82 48 42 c26 24 50 43 53 43 3 0 25 -32 50 -70 25 -38 49 -70 54 -70 13 0 1
24 -45 92 l-42 61 34 28 c19 16 37 29 40 29 9 0 109 -146 109 -159 0 -6 5 -11
10 -11 21 0 8 30 -44 107 -54 79 -54 79 -33 93 12 7 32 20 44 28 22 13 24 11
65 -52 37 -58 58 -80 58 -60 0 4 -18 36 -41 71 -45 72 -46 66 27 113 l31 20
146 -78 c127 -67 147 -81 153 -106 5 -25 0 -34 -40 -71 -49 -44 -59 -79 -27
-90 10 -3 69 -54 131 -114 l112 -108 -16 -32 c-23 -44 -11 -39 44 20 47 50 49
51 91 44 33 -5 41 -4 33 4 -6 7 -26 14 -45 17 -28 5 -41 1 -65 -20 -23 -19
-34 -22 -42 -14 -17 17 -14 39 8 68 25 33 25 55 -3 130 -24 62 -24 62 -95 93
-70 31 -72 33 -72 69 0 44 -3 47 -210 155 -368 193 -558 252 -744 229 -47 -6
-58 -12 -70 -34 -8 -15 -64 -193 -126 -397 -61 -203 -115 -373 -118 -376 -4
-4 -30 -10 -58 -14 l-51 -7 -7 46 -7 46 -189 0 c-200 0 -200 0 -200 -50 0 -21
-15 -34 -29 -26 -7 5 14 102 25 114 1 2 42 14 91 27 54 14 76 23 58 24 -16 0
-55 -6 -85 -14 -34 -9 -56 -11 -58 -5 -8 24 -19 5 -36 -60 -10 -38 -24 -70
-30 -70 -9 0 -229 96 -245 106 -8 6 293 334 306 334 15 0 12 -7 -21 -52 -11
-15 -16 -31 -13 -35 4 -4 14 2 21 13 43 58 41 57 64 43 12 -7 25 -9 29 -5 4 5
4 10 -2 13 -39 14 -40 22 -8 55 17 18 41 58 52 88 24 64 24 60 12 60 -5 0 -18
-22 -28 -48 -18 -50 -79 -129 -90 -118 -8 8 13 47 43 79 13 14 24 31 24 37 0
6 13 36 28 68 16 31 49 106 73 166 36 89 50 113 79 132 19 13 38 24 41 24 4 0
10 -28 14 -62 4 -35 11 -70 17 -78 9 -15 5 53 -8 126 -5 30 -5 31 48 42 29 6
76 14 105 17 59 8 58 10 69 -97 3 -38 11 -68 16 -68 5 0 7 12 4 28 -16 85 -18
135 -5 144 26 17 112 -1 494 -103z m2084 35 c183 -70 180 -69 174 -94 -3 -12
22 -91 62 -195 38 -97 66 -177 64 -180 -3 -2 -47 -14 -99 -25 l-95 -21 -195
102 c-107 56 -197 103 -199 105 -2 2 6 36 17 76 12 40 24 112 28 160 6 81 8
87 31 93 13 3 26 12 29 20 9 23 27 19 183 -41z m-283 27 c32 -19 32 -20 27
-88 -4 -65 -38 -209 -53 -226 -7 -8 -223 98 -264 130 -13 10 -30 32 -39 48
-22 40 -21 19 1 -25 9 -19 31 -43 48 -55 18 -11 39 -24 47 -30 14 -9 11 -27
-22 -160 l-38 -150 -67 -70 -66 -70 1 55 c0 30 4 109 9 175 5 74 4 141 -2 175
-9 50 -7 59 19 114 l28 59 125 60 c108 51 160 71 205 76 6 0 24 -8 41 -18z
m-3396 -191 c202 -101 260 -134 260 -149 0 -19 -30 -174 -35 -179 -6 -7 -244
82 -423 157 -245 104 -238 106 -249 -75 l-6 -104 -42 0 c-86 0 -102 13 -156
123 l-49 101 46 25 c25 15 123 72 217 128 95 56 173 102 175 102 1 1 119 -58
262 -129z m2848 98 c-3 -7 -15 -18 -29 -25 -27 -13 -189 -34 -201 -27 -8 5
-12 54 -5 54 2 0 26 -7 53 -15 45 -13 54 -13 109 4 74 24 78 24 73 9z m1185
-57 c51 -15 63 -22 65 -42 3 -16 -5 -30 -25 -46 -15 -13 -22 -23 -15 -23 28 0
50 21 56 54 l7 34 382 -98 c443 -113 507 -130 507 -139 0 -3 -9 -21 -20 -39
-11 -18 -20 -36 -20 -41 0 -8 123 -68 260 -126 47 -20 89 -40 93 -44 22 -22
-140 -269 -222 -338 -27 -24 -52 -43 -55 -43 -2 0 -53 55 -111 123 -75 85
-141 148 -219 207 -84 65 -110 91 -108 105 2 11 6 32 9 46 4 22 -1 29 -30 46
-31 19 -35 26 -43 84 -13 93 -31 90 -88 -15 -26 -48 -52 -86 -59 -86 -21 1
-174 37 -185 44 -11 6 -7 17 35 124 3 6 1 12 -5 12 -6 0 -21 -26 -33 -59 l-23
-58 -70 -6 c-39 -4 -74 -3 -79 2 -15 15 -136 334 -131 343 6 10 31 6 127 -21z
m-1256 -148 c-4 -71 -7 -150 -7 -177 l0 -48 -69 4 c-39 2 -72 6 -75 9 -3 2 -6
77 -7 164 l-1 160 43 6 c24 3 62 7 83 7 l39 2 -6 -127z m-1141 76 c36 -11 62
-24 59 -30 -10 -15 -476 -322 -481 -316 -6 6 83 300 102 339 10 20 23 28 51
31 68 8 204 -4 269 -24z m225 -86 c60 -27 109 -51 109 -55 0 -3 -46 -36 -102
-72 -57 -36 -146 -99 -198 -140 l-94 -74 -64 95 c-40 60 -60 99 -54 105 23 23
268 187 280 188 8 0 63 -21 123 -47z m1419 7 c44 -22 80 -44 80 -49 0 -5 -9
-37 -20 -72 -15 -47 -34 -79 -74 -123 l-54 -60 -40 12 c-23 7 -44 17 -47 22
-5 8 66 310 72 310 2 0 39 -18 83 -40z m-3475 -82 c96 -40 175 -76 175 -79 0
-4 -9 -26 -19 -50 l-20 -44 -183 8 c-100 4 -185 11 -189 15 -3 4 -3 50 1 103
6 98 20 135 47 125 7 -3 92 -38 188 -78z m-1081 -44 l88 -105 -68 -72 c-38
-40 -81 -88 -95 -107 l-26 -34 -7 139 c-6 135 0 286 13 284 3 0 46 -47 95
-105z m1734 40 c50 -16 92 -33 92 -38 0 -5 -12 -24 -26 -43 -35 -45 -323 -367
-332 -371 -4 -1 -57 27 -117 61 l-110 64 -3 75 c-2 57 2 85 17 121 11 26 25
47 30 47 24 0 221 -76 262 -102 48 -29 59 -33 59 -20 0 4 -20 20 -45 35 -36
23 -44 33 -40 50 8 33 35 168 35 172 0 2 19 -2 43 -9 23 -7 84 -26 135 -42z
m3131 -74 l191 -100 90 20 c57 13 126 20 190 20 l100 0 0 -50 0 -50 -98 0
c-94 0 -105 -3 -292 -65 -305 -102 -396 -127 -483 -131 -43 -2 -117 -10 -165
-19 -48 -8 -104 -15 -124 -15 l-38 0 0 61 c0 60 2 64 53 125 28 35 62 66 75
70 12 3 40 -1 62 -10 60 -24 75 -20 116 29 42 51 58 57 50 18 -11 -56 -16
-168 -7 -148 5 11 12 58 16 105 6 70 22 142 50 228 3 6 8 12 13 12 5 0 95 -45
201 -100z m941 11 c0 -58 0 -58 40 -76 39 -17 39 -18 26 -49 -15 -35 -16 -35
-102 4 l-65 29 41 81 c22 44 45 78 50 75 6 -3 10 -32 10 -64z m753 18 c115
-10 137 -15 137 -29 0 -16 -76 -180 -83 -180 -4 0 -274 118 -319 140 l-27 13
20 40 21 40 56 -6 c32 -3 119 -12 195 -18z m-3792 -135 l63 -97 -39 -33 c-93
-80 -402 -284 -429 -284 -2 0 22 82 52 183 l55 183 111 71 c61 40 114 72 117
72 4 1 35 -42 70 -95z m4487 -92 c20 -16 31 -31 27 -40 -3 -8 -36 -56 -72
-107 l-68 -93 -65 46 c-36 25 -79 59 -97 75 -30 28 -31 32 -19 56 8 14 54 50
102 82 l89 56 35 -25 c19 -14 50 -37 68 -50z m-3541 -9 c6 -2 21 -31 33 -63
23 -61 22 -90 -5 -124 -13 -17 -19 -14 -100 60 -47 44 -94 83 -105 88 -29 13
-25 31 16 65 l37 30 56 -26 c31 -14 61 -27 68 -30z m1583 17 c0 -6 -30 -69
-66 -141 l-65 -132 -107 7 c-59 4 -126 9 -149 12 -41 6 -43 8 -43 39 0 18 3
46 6 64 6 30 10 32 203 96 204 67 221 72 221 55z m139 -8 c5 -9 17 -45 25 -80
9 -34 48 -135 86 -224 57 -133 83 -179 145 -260 63 -83 79 -112 99 -181 17
-61 99 -226 320 -645 163 -309 296 -567 296 -572 0 -6 -6 -10 -14 -10 -8 0
-28 -11 -44 -25 -17 -15 -61 -33 -102 -44 -51 -13 -80 -26 -104 -50 l-34 -33
17 -51 c23 -68 45 -75 23 -7 l-16 51 29 29 c17 16 41 31 54 32 19 2 26 -4 36
-31 6 -19 16 -36 22 -38 5 -2 31 6 58 17 50 21 50 22 30 87 -6 17 -1 25 24 37
16 9 32 16 35 16 2 0 46 -66 97 -146 82 -130 104 -157 193 -236 56 -50 127
-108 158 -129 44 -30 57 -45 55 -62 -2 -18 11 -29 71 -60 52 -27 77 -36 85
-28 9 7 44 -9 122 -58 191 -117 468 -270 529 -291 87 -29 126 -63 126 -106 0
-20 -6 -37 -13 -40 -8 -3 -60 13 -117 36 -117 45 -110 43 -110 31 0 -5 44 -26
98 -47 53 -20 101 -40 106 -45 20 -17 -252 -455 -351 -566 -55 -61 -68 -71
-86 -64 -12 5 -53 14 -92 20 -102 17 -107 19 -100 44 5 21 5 21 -7 -1 -10 -21
-16 -22 -72 -16 -45 4 -82 1 -143 -15 -45 -12 -83 -21 -86 -21 -2 0 -10 15
-17 33 -22 55 -34 58 -98 30 -31 -13 -66 -33 -76 -43 -19 -19 -19 -21 -3 -73
9 -30 17 -58 17 -64 0 -6 -19 -18 -42 -27 -33 -14 -43 -15 -49 -4 -5 7 -9 17
-9 21 0 4 -13 13 -30 18 -16 6 -30 17 -30 24 0 8 -4 16 -8 19 -12 7 -92 -15
-92 -25 0 -11 7 -11 47 0 27 8 33 6 38 -9 3 -10 17 -21 31 -24 14 -4 29 -18
34 -31 11 -30 25 -31 82 -6 33 14 49 16 63 9 12 -8 39 -7 86 2 70 12 89 9 89
-15 0 -25 17 -25 91 0 40 14 74 25 75 25 1 0 5 -13 9 -30 7 -32 25 -51 25 -27
0 8 -16 59 -35 112 -20 54 -33 100 -30 103 10 10 97 2 210 -19 61 -12 113 -23
118 -26 9 -5 -207 -182 -278 -227 -80 -51 -303 -142 -380 -155 -38 -6 -81 -14
-96 -17 -21 -4 -30 3 -57 40 -51 70 -44 82 55 106 29 6 51 16 48 20 -8 13
-129 -19 -142 -37 -19 -25 -16 -53 12 -89 14 -18 25 -35 25 -38 0 -18 -778 21
-1087 54 -51 6 -119 10 -151 10 -59 0 -60 0 -66 31 -3 17 -6 48 -6 68 0 86
-63 183 -167 257 -68 48 -93 61 -93 47 0 -5 30 -30 68 -56 73 -50 132 -114
155 -168 8 -19 17 -65 21 -102 l8 -67 -39 0 c-21 0 -108 5 -193 12 -215 16
-230 29 -230 213 0 157 -78 696 -118 817 -11 32 -17 60 -14 63 3 3 19 5 36 5
28 1 29 2 14 14 -10 7 -18 20 -18 29 0 28 -19 28 -22 0 -2 -16 -7 -27 -13 -26
-5 1 -47 117 -93 259 l-84 257 18 33 c18 34 19 34 90 34 87 0 115 -18 139 -89
24 -74 30 -76 138 -56 136 25 127 20 127 73 -1 67 -53 256 -72 260 -9 2 -60
-8 -114 -22 -55 -14 -131 -28 -170 -31 l-71 -7 14 98 c8 55 18 102 21 105 4 4
121 44 260 88 138 45 252 86 252 92 0 5 -11 7 -24 3 l-24 -6 5 154 c6 197 16
319 26 318 4 0 47 0 97 0 l90 0 30 -67 c17 -38 36 -90 41 -118 13 -64 18 -79
25 -72 9 9 -18 130 -43 185 -28 64 -28 62 0 62 36 0 51 -25 93 -152 21 -65 42
-118 46 -118 12 0 10 9 -27 120 -19 57 -35 108 -35 112 0 5 25 20 55 35 30 15
55 31 55 35 0 12 -6 10 -62 -18 -45 -23 -55 -25 -72 -13 -12 7 -35 15 -53 18
l-32 6 28 65 c15 36 47 111 70 168 37 87 46 102 62 97 11 -4 19 -2 19 3 0 5
-61 35 -136 66 -109 45 -147 56 -191 56 l-55 0 4 158 c4 137 10 181 47 351 40
184 46 201 114 337 l72 144 47 0 c35 0 50 -5 57 -18z m2297 -38 c35 -25 64
-48 64 -52 0 -4 -27 -42 -59 -84 l-58 -78 -67 50 c-36 28 -66 53 -66 56 0 11
105 153 114 153 5 1 37 -19 72 -45z m-303 -93 c31 -24 57 -46 57 -50 0 -6
-122 -176 -140 -195 -9 -9 -169 100 -177 121 -3 7 28 58 68 113 l72 100 31
-23 c17 -13 57 -43 89 -66z m-2573 -38 c0 -82 -22 -398 -29 -405 -6 -6 -240
34 -257 45 -10 6 16 320 27 331 7 7 228 74 247 75 8 1 12 -15 12 -46z m-302
-165 c-9 -90 -17 -171 -17 -180 -1 -14 -10 -18 -37 -18 -21 0 -33 -4 -29 -10
3 -5 20 -10 37 -10 28 0 30 -2 23 -27 -4 -16 -7 -106 -6 -201 l1 -174 -88 7
c-48 4 -89 9 -91 11 -4 4 16 279 26 352 5 41 6 42 47 43 22 1 -15 8 -84 16
-69 8 -126 16 -128 18 -1 1 3 69 10 151 l13 149 90 7 c50 4 110 11 135 16 25
6 61 10 80 11 l36 1 -18 -162z m3047 71 c8 -11 -86 -239 -98 -239 -4 0 -39 23
-78 51 -47 35 -67 55 -61 63 5 6 39 53 76 103 l68 93 43 -30 c24 -17 47 -35
50 -41z m-4961 2 c20 -27 36 -53 36 -57 0 -7 -199 -150 -247 -178 -15 -8 -97
109 -90 129 3 7 23 19 44 25 21 7 76 39 123 71 47 32 88 59 92 59 3 0 22 -22
42 -49z m-971 -45 c55 -25 76 -39 71 -48 -4 -7 -43 -65 -87 -128 -78 -112
-111 -149 -133 -150 -11 0 -227 166 -232 179 -1 4 43 57 98 118 l100 112 53
-24 c28 -12 87 -39 130 -59z m474 38 c47 -6 51 -9 55 -36 3 -16 0 -32 -6 -35
-18 -12 -344 -9 -356 3 -6 6 -7 24 -4 42 l7 32 126 0 c69 0 149 -3 178 -6z
m2906 -3 c54 -5 101 -11 104 -14 5 -6 -57 -311 -68 -328 -5 -9 -32 -8 -112 6
-58 10 -111 21 -116 25 -8 4 -8 47 -1 146 5 76 10 147 10 157 0 20 29 21 183
8z m2720 -103 c32 -22 167 -98 300 -170 133 -71 246 -134 251 -139 15 -14 -19
-54 -150 -173 l-126 -114 -87 -16 c-47 -8 -140 -20 -206 -26 -66 -6 -132 -16
-147 -22 -23 -9 -34 -6 -72 16 -57 33 -186 201 -186 241 0 20 18 46 70 99 65
67 74 83 136 227 36 85 68 157 71 161 4 8 43 -15 146 -84z m-1216 0 c55 -40
66 -62 79 -160 l6 -45 -63 -6 c-72 -8 -68 -10 -172 106 l-60 68 53 54 c61 62
48 64 157 -17z m-3807 -39 c28 -39 49 -77 46 -85 -5 -12 -266 -189 -270 -182
-26 40 -86 149 -86 155 0 6 247 183 256 183 1 0 26 -32 54 -71z m-837 45 c48
-4 87 -10 87 -14 0 -4 -69 -117 -153 -251 -151 -242 -152 -244 -189 -247 -35
-3 -38 -1 -88 72 -28 42 -55 76 -61 76 -12 0 -9 -4 44 -83 21 -32 37 -60 35
-61 -1 -2 -25 -8 -53 -14 -45 -10 -40 -11 48 -6 78 3 97 2 91 -8 -12 -20 -156
-243 -159 -246 -2 -2 -103 65 -224 149 -122 83 -225 149 -228 145 -9 -9 -12
-7 222 -166 116 -79 212 -145 214 -147 12 -9 -90 -97 -139 -119 -51 -24 -514
-164 -541 -164 -26 0 -186 101 -228 144 l-44 45 189 208 c104 114 265 291 357
393 93 102 172 186 176 188 4 1 59 -38 122 -88 63 -49 123 -90 134 -90 31 0
66 38 161 176 80 116 89 126 113 121 15 -3 66 -9 114 -13z m348 -111 c-89
-174 -68 -164 -194 -96 -59 32 -107 63 -107 68 0 6 18 38 40 72 l39 62 58 4
c32 2 95 4 141 5 l83 2 -60 -117z m2067 -59 c30 -5 32 -7 32 -47 -1 -64 -26
-337 -32 -342 -5 -5 -134 38 -144 47 -2 3 3 83 11 179 8 96 15 175 15 177 0 2
48 -3 118 -14z m-2191 -101 l31 -16 -23 -52 c-12 -29 -47 -94 -78 -146 -56
-95 -95 -134 -229 -229 l-47 -33 -71 58 c-39 31 -69 62 -67 68 3 7 48 80 100
162 53 83 116 183 142 222 l46 73 82 -46 c45 -25 96 -52 114 -61z m2575 55
l121 -22 -7 -131 c-4 -71 -9 -152 -13 -178 l-6 -49 -121 7 c-67 4 -123 9 -125
11 -8 7 -13 255 -7 317 6 50 11 67 23 67 8 0 69 -10 135 -22z m1942 -24 c11
-28 6 -51 -14 -69 -20 -18 -21 -18 -66 26 l-45 44 38 6 c66 11 81 9 87 -7z
m-1679 -24 c60 -11 111 -20 113 -20 6 0 -5 -310 -11 -317 -3 -2 -60 -1 -127 3
l-123 7 7 131 c8 150 15 216 25 216 4 0 56 -9 116 -20z m3555 -6 c21 -6 60
-66 60 -92 0 -12 -2 -22 -5 -22 -6 0 -168 80 -175 87 -3 2 6 13 20 24 24 18
46 19 100 3z m-65 -114 c50 -27 87 -50 83 -50 -19 0 -204 43 -211 50 -10 9 13
50 28 50 5 0 51 -23 100 -50z m-20 -46 c66 -15 123 -32 127 -38 10 -15 10 -98
0 -113 -5 -7 -72 -20 -167 -32 l-160 -19 -45 45 -45 45 74 69 c41 38 79 69 85
69 6 0 65 -12 131 -26z m389 -217 c99 -82 182 -153 184 -157 1 -4 -17 -29 -40
-55 l-43 -47 -30 61 c-19 42 -36 63 -51 67 -12 3 -62 1 -111 -5 -134 -17 -130
-18 -136 32 -21 156 -21 147 7 147 14 0 26 5 26 11 0 7 -9 9 -21 6 -27 -7 -34
14 -22 69 7 30 7 47 -1 55 -26 29 70 -45 238 -184z m-4574 85 l65 -24 1 -191
c2 -219 25 -432 49 -456 12 -12 43 -17 125 -19 l110 -4 0 -31 c-1 -40 -16
-204 -31 -324 l-11 -92 -77 -3 -76 -3 73 -9 c83 -10 79 0 58 -143 -17 -109
-47 -183 -74 -183 -16 0 -33 50 -120 343 -121 410 -148 548 -157 812 -3 99 -8
220 -12 269 -3 53 -2 87 4 85 5 -2 38 -15 73 -27z m3928 -35 c28 -29 44 -55
48 -78 19 -137 63 -553 59 -557 -3 -3 -53 -11 -112 -18 -142 -18 -148 -13 -98
79 20 37 35 72 33 79 -3 7 -24 -22 -47 -64 -44 -79 -43 -79 -108 -82 -30 -2
-45 84 -32 194 15 131 11 126 65 96 48 -27 64 -31 64 -18 0 4 -25 20 -56 35
-41 21 -54 32 -50 45 2 9 7 27 11 39 5 18 -5 28 -70 67 -42 25 -80 46 -85 46
-25 0 -4 -18 66 -59 57 -33 74 -47 69 -60 -4 -9 -14 -76 -23 -149 -13 -107
-14 -143 -4 -188 11 -52 10 -59 -13 -105 -14 -27 -29 -49 -33 -49 -4 0 -56 27
-117 59 l-110 58 -68 98 c-66 94 -68 99 -68 159 0 68 36 188 74 243 29 43 49
50 200 63 207 18 276 34 317 75 19 19 37 35 40 35 3 0 25 -19 48 -43z m-3656
-6 c4 -3 23 -101 42 -218 26 -149 36 -242 36 -317 l0 -106 -33 0 c-19 0 -68 3
-110 6 -63 6 -77 10 -86 28 -27 52 -59 579 -37 614 6 10 176 4 188 -7z m274
-5 c1 0 5 -99 9 -218 l7 -218 -65 0 c-35 0 -78 3 -93 6 l-29 6 -36 211 c-20
117 -35 214 -34 217 3 4 237 1 241 -4z m272 -11 c2 -2 0 -99 -4 -215 -5 -166
-10 -213 -21 -217 -7 -3 -60 -2 -117 2 l-104 7 -4 211 c-2 117 -3 215 -1 218
2 6 244 0 251 -6z m230 -47 c53 -22 101 -43 105 -48 8 -7 -115 -322 -133 -343
-4 -5 -51 -5 -104 -1 l-97 7 6 206 c4 113 9 212 11 220 7 22 105 4 212 -41z
m3278 -39 c5 -50 7 -92 4 -94 -12 -7 -311 -37 -316 -32 -7 7 -27 177 -22 182
5 6 229 33 279 34 l45 1 10 -91z m-6881 -4 c35 -27 64 -54 65 -58 0 -4 -53
-62 -118 -128 l-117 -121 -29 23 c-15 12 -37 36 -47 53 l-18 30 26 28 27 28
23 -22 c26 -25 33 -6 8 22 -14 16 -11 25 42 108 32 50 61 90 65 89 4 -1 37
-24 73 -52z m7140 -81 c13 -5 85 -130 85 -148 0 -14 -283 -56 -295 -44 -9 9
-17 168 -9 169 23 2 199 26 201 28 1 0 9 -2 18 -5z m-240 -81 c4 -32 7 -71 8
-88 l2 -30 -159 -18 c-87 -10 -160 -17 -162 -15 -4 5 -23 162 -19 166 2 3 265
38 307 41 13 1 18 -11 23 -56z m386 -177 c29 -56 41 -88 34 -95 -10 -10 -355
-54 -363 -46 -8 8 -24 176 -18 183 4 3 68 14 144 23 75 9 142 17 148 18 6 0
31 -37 55 -83z m-367 17 c3 -16 8 -58 12 -95 6 -65 5 -67 -17 -72 -61 -13
-294 -35 -300 -28 -5 5 -28 176 -24 183 0 1 280 37 302 38 16 1 23 -6 27 -26z
m-8046 -69 c2 -1 -9 -20 -23 -43 l-27 -41 -44 32 c-47 34 -47 32 0 85 l19 23
36 -27 c20 -14 37 -27 39 -29z m4483 27 c7 -9 -8 -397 -19 -446 l-8 -40 -209
-67 c-116 -37 -214 -68 -219 -68 -8 0 -5 46 11 172 l6 48 101 -6 c94 -6 104
-9 148 -41 25 -18 49 -29 52 -24 3 5 -16 25 -43 45 -43 32 -56 36 -107 36
l-59 0 3 55 c3 35 0 55 -7 55 -7 0 -11 -20 -11 -49 0 -56 -6 -63 -46 -55 l-29
5 3 90 c3 68 7 89 18 89 33 0 105 -37 176 -91 42 -33 79 -59 82 -59 42 0 -131
129 -206 155 l-58 19 0 99 0 99 208 -7 c114 -4 210 -10 213 -14z m-4583 -99
l33 -28 -88 -117 c-99 -131 -120 -145 -161 -103 -32 31 -36 22 79 171 45 58
87 105 93 105 6 0 26 -13 44 -28z m8174 -88 c2 -26 -1 -48 -7 -50 -16 -6 -309
-34 -313 -30 -1 2 -4 23 -5 47 l-2 44 130 16 c203 26 192 27 197 -27z m-2298
-440 c6 -18 0 -24 -31 -37 -40 -16 -47 -12 -55 27 -2 14 6 22 32 31 38 14 44
11 54 -21z m-4527 -136 l31 -13 -58 -97 c-33 -53 -64 -115 -71 -138 -7 -22
-14 -38 -16 -36 -5 5 -33 177 -33 207 0 15 11 52 25 83 l25 57 33 -25 c18 -14
47 -31 64 -38z m3102 -85 c14 -49 14 -53 -3 -53 -19 0 -23 7 -31 53 -6 30 -4
37 8 37 10 0 20 -15 26 -37z m-51 -15 c13 -50 11 -55 -27 -63 -16 -3 -35 -13
-42 -21 -15 -19 -4 -18 59 6 29 11 58 20 65 20 17 0 47 -106 40 -141 -4 -24
-11 -27 -100 -43 -109 -19 -114 -17 -133 48 -19 70 -46 88 -135 94 -71 4 -75
6 -69 26 20 65 19 64 91 71 37 3 100 14 138 24 101 27 101 27 113 -21z m2104
-39 c22 -11 144 -60 272 -109 127 -49 263 -101 301 -117 l70 -30 5 -45 c8 -68
-14 -92 -77 -84 -27 3 -81 9 -120 12 -61 5 -73 9 -73 24 0 19 -148 92 -212
104 -34 6 -138 64 -245 137 l-41 29 26 50 c15 27 33 50 40 50 7 0 31 -9 54
-21z m1597 -80 c24 -11 62 -19 85 -19 49 0 62 -7 75 -42 8 -22 7 -28 -8 -33
-9 -3 -31 -23 -47 -45 -16 -22 -32 -40 -35 -40 -10 0 -253 111 -266 122 -7 6
-13 28 -13 49 l0 38 83 -6 c45 -3 101 -14 126 -24z m211 -150 c0 -10 -5 -30
-12 -44 -12 -26 -16 -26 -75 -4 -31 11 -29 18 12 63 34 38 36 38 55 21 11 -10
20 -26 20 -36z m-1774 -11 c73 -44 69 -53 -6 -14 -33 17 -60 34 -60 39 0 12
10 8 66 -25z m1822 5 c2 -8 -5 -13 -17 -13 -12 0 -21 6 -21 16 0 18 31 15 38
-3z m-1575 -72 c58 -26 77 -39 77 -54 0 -18 -2 -18 -22 -5 -13 8 -51 32 -85
53 -35 21 -63 40 -63 42 0 5 -4 7 93 -36z m2127 -136 c0 -35 -43 -38 -107 -7
-29 14 -53 29 -53 34 0 4 9 13 21 21 18 13 27 13 80 -5 49 -16 59 -24 59 -43z
m-1440 -256 c0 -5 -7 -9 -15 -9 -15 0 -20 12 -9 23 8 8 24 -1 24 -14z m-3335
-11 c2 -7 5 -34 8 -60 4 -44 3 -47 -24 -57 -16 -6 -32 -17 -35 -25 -4 -11 56
-233 83 -303 2 -6 -9 -19 -26 -29 -22 -13 -31 -26 -31 -45 0 -39 22 -53 75
-46 42 6 45 5 52 -21 13 -54 7 -536 -10 -742 -30 -356 -38 -412 -56 -405 -9 4
-70 24 -136 46 -66 22 -149 55 -185 73 -36 19 -83 37 -104 41 -43 7 -322 144
-371 181 -17 12 -71 37 -120 54 -64 22 -125 55 -213 113 -67 45 -121 87 -120
94 5 20 426 451 593 606 103 96 186 186 267 288 65 81 133 159 151 172 17 14
66 36 107 50 89 30 90 30 95 15z m20 -150 c9 -37 75 -382 75 -391 0 -4 -21 -7
-47 -5 -40 3 -48 6 -51 25 -2 14 3 23 17 28 44 14 44 26 -4 184 -37 122 -44
155 -35 166 18 22 39 18 45 -7z m2234 -604 c17 -47 31 -86 31 -88 0 -2 -27 -9
-60 -16 -82 -17 -101 -8 -123 64 -10 31 -15 61 -12 66 9 14 97 59 117 60 11 0
25 -24 47 -86z m186 -32 c16 -44 19 -65 11 -68 -6 -2 -36 -12 -67 -23 l-57
-19 -26 71 c-14 38 -23 73 -20 76 10 10 88 30 113 28 19 -2 27 -13 46 -65z
m-1805 -372 c112 0 128 -7 114 -47 -14 -42 -52 -42 -122 1 -31 20 -66 36 -77
37 -11 0 -29 5 -40 10 -17 8 -17 9 5 4 14 -2 68 -5 120 -5z m735 -30 c160 -11
365 -20 457 -20 l166 0 31 -86 c49 -136 41 -147 -184 -239 -165 -66 -265 -78
-265 -30 0 39 -23 125 -33 125 -5 0 -7 -12 -3 -27 3 -16 9 -50 12 -78 l6 -50
-62 -24 c-33 -13 -64 -20 -67 -17 -3 3 -8 51 -11 106 -3 55 -9 103 -15 107 -6
4 -7 -34 -3 -113 6 -94 4 -126 -7 -154 -8 -19 -23 -74 -32 -122 l-18 -88 -286
-216 c-157 -119 -291 -218 -297 -221 -15 -6 -92 138 -156 290 -72 175 -107
313 -119 481 -9 130 -12 146 -49 229 -45 101 -45 130 1 146 43 15 134 -5 185
-40 32 -22 54 -29 88 -29 40 0 47 3 61 30 8 16 15 36 15 45 0 22 218 20 585
-5z"/>
<path d="M4051 9324 c0 -11 3 -14 6 -6 3 7 2 16 -1 19 -3 4 -6 -2 -5 -13z"/>
<path d="M3281 9344 c0 -11 3 -14 6 -6 3 7 2 16 -1 19 -3 4 -6 -2 -5 -13z"/>
<path d="M3291 9294 c0 -11 3 -14 6 -6 3 7 2 16 -1 19 -3 4 -6 -2 -5 -13z"/>
<path d="M3548 9233 c7 -3 16 -2 19 1 4 3 -2 6 -13 5 -11 0 -14 -3 -6 -6z"/>
<path d="M3811 9234 c0 -11 3 -14 6 -6 3 7 2 16 -1 19 -3 4 -6 -2 -5 -13z"/>
<path d="M3801 9194 c0 -11 3 -14 6 -6 3 7 2 16 -1 19 -3 4 -6 -2 -5 -13z"/>
<path d="M3781 9104 c0 -11 3 -14 6 -6 3 7 2 16 -1 19 -3 4 -6 -2 -5 -13z"/>
<path d="M3771 9064 c0 -11 3 -14 6 -6 3 7 2 16 -1 19 -3 4 -6 -2 -5 -13z"/>
<path d="M3761 9014 c0 -11 3 -14 6 -6 3 7 2 16 -1 19 -3 4 -6 -2 -5 -13z"/>
<path d="M3751 8974 c0 -11 3 -14 6 -6 3 7 2 16 -1 19 -3 4 -6 -2 -5 -13z"/>
<path d="M3741 8934 c0 -11 3 -14 6 -6 3 7 2 16 -1 19 -3 4 -6 -2 -5 -13z"/>
<path d="M3731 8884 c0 -11 3 -14 6 -6 3 7 2 16 -1 19 -3 4 -6 -2 -5 -13z"/>
<path d="M2141 8584 c0 -11 3 -14 6 -6 3 7 2 16 -1 19 -3 4 -6 -2 -5 -13z"/>
<path d="M2211 8584 c0 -11 3 -14 6 -6 3 7 2 16 -1 19 -3 4 -6 -2 -5 -13z"/>
<path d="M2201 8544 c0 -11 3 -14 6 -6 3 7 2 16 -1 19 -3 4 -6 -2 -5 -13z"/>
<path d="M2131 8534 c0 -11 3 -14 6 -6 3 7 2 16 -1 19 -3 4 -6 -2 -5 -13z"/>
<path d="M2191 8504 c0 -11 3 -14 6 -6 3 7 2 16 -1 19 -3 4 -6 -2 -5 -13z"/>
<path d="M7778 8943 c7 -3 16 -2 19 1 4 3 -2 6 -13 5 -11 0 -14 -3 -6 -6z"/>
<path d="M7708 8923 c7 -3 16 -2 19 1 4 3 -2 6 -13 5 -11 0 -14 -3 -6 -6z"/>
<path d="M4548 8623 c7 -3 16 -2 19 1 4 3 -2 6 -13 5 -11 0 -14 -3 -6 -6z"/>
<path d="M4811 8604 c0 -11 3 -14 6 -6 3 7 2 16 -1 19 -3 4 -6 -2 -5 -13z"/>
<path d="M4650 8485 c0 -8 4 -15 10 -15 5 0 7 7 4 15 -4 8 -8 15 -10 15 -2 0
-4 -7 -4 -15z"/>
<path d="M4636 8434 c-4 -14 -5 -28 -3 -31 3 -2 8 8 11 23 4 14 5 28 3 31 -3
2 -8 -8 -11 -23z"/>
<path d="M4621 8374 c0 -11 3 -14 6 -6 3 7 2 16 -1 19 -3 4 -6 -2 -5 -13z"/>
<path d="M4611 8334 c0 -11 3 -14 6 -6 3 7 2 16 -1 19 -3 4 -6 -2 -5 -13z"/>
<path d="M4591 8264 c0 -11 3 -14 6 -6 3 7 2 16 -1 19 -3 4 -6 -2 -5 -13z"/>
<path d="M2671 8084 c0 -11 3 -14 6 -6 3 7 2 16 -1 19 -3 4 -6 -2 -5 -13z"/>
<path d="M2656 7424 c21 -15 73 -51 115 -80 73 -51 167 -99 176 -90 2 2 -16
12 -41 21 -25 10 -96 53 -158 96 -62 44 -116 79 -121 79 -6 0 8 -12 29 -26z"/>
<path d="M4180 7342 c8 -5 26 -13 40 -16 17 -5 20 -4 10 2 -8 5 -26 13 -40 16
-17 5 -20 4 -10 -2z"/>
<path d="M2970 7240 c8 -5 20 -10 25 -10 6 0 3 5 -5 10 -8 5 -19 10 -25 10 -5
0 -3 -5 5 -10z"/>
<path d="M3030 7215 c14 -8 30 -14 35 -14 6 0 -1 6 -15 14 -14 8 -29 14 -35
14 -5 0 1 -6 15 -14z"/>
<path d="M4252 7200 c0 -14 2 -19 5 -12 2 6 2 18 0 25 -3 6 -5 1 -5 -13z"/>
<path d="M3090 7190 c8 -5 20 -10 25 -10 6 0 3 5 -5 10 -8 5 -19 10 -25 10 -5
0 -3 -5 5 -10z"/>
<path d="M3143 7169 c23 -13 127 -49 141 -48 10 0 -143 59 -154 58 -3 0 3 -4
13 -10z"/>
<path d="M3593 7143 c9 -2 23 -2 30 0 6 3 -1 5 -18 5 -16 0 -22 -2 -12 -5z"/>
<path d="M3518 7133 c6 -2 18 -2 25 0 6 3 1 5 -13 5 -14 0 -19 -2 -12 -5z"/>
<path d="M3448 7123 c6 -2 18 -2 25 0 6 3 1 5 -13 5 -14 0 -19 -2 -12 -5z"/>
<path d="M3343 7113 c15 -2 37 -2 50 0 12 2 0 4 -28 4 -27 0 -38 -2 -22 -4z"/>
<path d="M5077 8055 c-10 -39 -24 -76 -30 -84 -6 -7 -12 -19 -13 -26 -4 -24
-25 -119 -34 -157 l-10 -36 -38 11 c-20 6 -39 14 -42 17 -3 3 -14 6 -25 6 -42
3 -121 29 -142 47 -16 15 -29 17 -55 12 -29 -7 -30 -9 -13 -16 11 -4 27 -8 35
-8 13 -1 13 0 0 9 -13 8 -12 10 3 10 9 0 17 -6 17 -14 0 -7 9 -16 20 -19 14
-4 18 -11 14 -24 -4 -14 -4 -15 4 -4 8 12 28 9 123 -18 111 -30 208 -43 149
-20 -13 6 -26 11 -28 13 -4 5 35 163 48 194 5 12 18 22 27 22 13 0 15 2 5 9
-10 6 -11 17 -2 53 7 25 10 56 8 69 -2 15 -9 -1 -21 -46z"/>
<path d="M4901 8094 c0 -11 3 -14 6 -6 3 7 2 16 -1 19 -3 4 -6 -2 -5 -13z"/>
<path d="M4461 8064 c0 -11 3 -14 6 -6 3 7 2 16 -1 19 -3 4 -6 -2 -5 -13z"/>
<path d="M4308 8043 c7 -3 16 -2 19 1 4 3 -2 6 -13 5 -11 0 -14 -3 -6 -6z"/>
<path d="M4472 8010 c0 -14 2 -19 5 -12 2 6 2 18 0 25 -3 6 -5 1 -5 -13z"/>
<path d="M4291 7994 c0 -11 3 -14 6 -6 3 7 2 16 -1 19 -3 4 -6 -2 -5 -13z"/>
<path d="M4930 7985 c14 -8 32 -14 40 -14 8 0 0 6 -19 14 -42 19 -54 19 -21 0z"/>
<path d="M4481 7954 c0 -11 3 -14 6 -6 3 7 2 16 -1 19 -3 4 -6 -2 -5 -13z"/>
<path d="M4998 7963 c7 -3 16 -2 19 1 4 3 -2 6 -13 5 -11 0 -14 -3 -6 -6z"/>
<path d="M4302 7930 c0 -14 2 -19 5 -12 2 6 2 18 0 25 -3 6 -5 1 -5 -13z"/>
<path d="M4941 7934 c0 -11 3 -14 6 -6 3 7 2 16 -1 19 -3 4 -6 -2 -5 -13z"/>
<path d="M4490 7924 c0 -14 49 -50 80 -58 19 -6 21 -5 10 3 -12 9 -11 11 9 11
16 0 22 -4 17 -15 -3 -8 -1 -15 3 -15 5 0 18 -3 28 -7 14 -5 13 0 -7 21 -19
22 -31 27 -55 23 -23 -4 -37 2 -57 21 -16 14 -28 21 -28 16z"/>
<path d="M4931 7894 c0 -11 3 -14 6 -6 3 7 2 16 -1 19 -3 4 -6 -2 -5 -13z"/>
<path d="M4311 7864 c0 -11 3 -14 6 -6 3 7 2 16 -1 19 -3 4 -6 -2 -5 -13z"/>
<path d="M4921 7854 c0 -11 3 -14 6 -6 3 7 2 16 -1 19 -3 4 -6 -2 -5 -13z"/>
<path d="M4911 7814 c0 -11 3 -14 6 -6 3 7 2 16 -1 19 -3 4 -6 -2 -5 -13z"/>
<path d="M4321 7804 c0 -11 3 -14 6 -6 3 7 2 16 -1 19 -3 4 -6 -2 -5 -13z"/>
<path d="M4332 7735 c0 -16 2 -22 5 -12 2 9 2 23 0 30 -3 6 -5 -1 -5 -18z"/>
<path d="M4368 7703 c7 -3 16 -2 19 1 4 3 -2 6 -13 5 -11 0 -14 -3 -6 -6z"/>
<path d="M4438 7693 c7 -3 16 -2 19 1 4 3 -2 6 -13 5 -11 0 -14 -3 -6 -6z"/>
<path d="M4500 7675 c46 -18 64 -17 25 0 -16 8 -37 14 -45 14 -8 0 1 -7 20
-14z"/>
<path d="M4615 7636 c17 -7 41 -16 55 -20 20 -5 19 -3 -5 8 -16 7 -41 16 -55
20 -20 5 -19 3 5 -8z"/>
<path d="M6933 7500 c0 -30 2 -43 4 -27 2 15 2 39 0 55 -2 15 -4 2 -4 -28z"/>
<path d="M6954 7412 c21 -41 20 -46 -11 -60 -26 -10 -26 -11 -3 -5 14 3 29 9
34 14 10 9 -10 65 -26 75 -5 4 -3 -8 6 -24z"/>
<path d="M8718 7363 c7 -3 16 -2 19 1 4 3 -2 6 -13 5 -11 0 -14 -3 -6 -6z"/>
<path d="M8678 7353 c7 -3 16 -2 19 1 4 3 -2 6 -13 5 -11 0 -14 -3 -6 -6z"/>
<path d="M8488 7293 c7 -3 16 -2 19 1 4 3 -2 6 -13 5 -11 0 -14 -3 -6 -6z"/>
<path d="M8388 7283 c7 -3 16 -2 19 1 4 3 -2 6 -13 5 -11 0 -14 -3 -6 -6z"/>
<path d="M8348 7273 c7 -3 16 -2 19 1 4 3 -2 6 -13 5 -11 0 -14 -3 -6 -6z"/>
<path d="M8298 7263 c7 -3 16 -2 19 1 4 3 -2 6 -13 5 -11 0 -14 -3 -6 -6z"/>
<path d="M4891 6337 c-8 -12 -21 -32 -29 -44 -8 -13 -12 -23 -9 -23 7 0 59 81
55 85 -2 2 -10 -6 -17 -18z"/>
<path d="M7671 2804 c-12 -31 -20 -59 -18 -61 2 -2 14 22 26 53 12 31 20 59
18 61 -2 2 -14 -22 -26 -53z"/>
<path d="M7636 2715 c-9 -26 -7 -32 5 -12 6 10 9 21 6 23 -2 3 -7 -2 -11 -11z"/>
<path d="M7616 2665 c-9 -26 -7 -32 5 -12 6 10 9 21 6 23 -2 3 -7 -2 -11 -11z"/>
<path d="M1674 9958 c-15 -24 -42 -67 -60 -96 -39 -60 -39 -60 -18 -87 16 -20
16 -20 9 3 -5 17 7 44 48 110 71 113 70 112 58 112 -6 0 -23 -19 -37 -42z"/>
<path d="M3073 9988 c-29 -5 -53 -14 -53 -20 0 -6 10 -8 23 -5 12 4 41 9 65
13 23 4 45 11 48 15 6 11 -13 10 -83 -3z"/>
<path d="M3280 9985 c1 -35 38 -277 44 -283 10 -9 7 37 -10 163 -10 66 -21
124 -25 130 -6 5 -9 1 -9 -10z"/>
<path d="M4425 9982 c-16 -9 -51 -16 -77 -16 -51 0 -64 -10 -25 -20 37 -9 132
17 141 39 7 18 0 18 -39 -3z"/>
<path d="M4910 9990 c0 -5 5 -10 10 -10 6 0 10 5 10 10 0 6 -4 10 -10 10 -5 0
-10 -4 -10 -10z"/>
<path d="M6274 9978 l-19 -23 23 19 c21 18 27 26 19 26 -2 0 -12 -10 -23 -22z"/>
<path d="M7936 9948 c46 -50 61 -60 67 -47 5 11 -81 99 -98 99 -13 0 -5 -14
31 -52z"/>
<path d="M9615 9959 c120 -36 177 -47 163 -33 -12 12 -234 74 -263 73 -18 0
23 -16 100 -40z"/>
<path d="M6389 9973 c-13 -16 -12 -17 4 -4 9 7 17 15 17 17 0 8 -8 3 -21 -13z"/>
<path d="M8596 9975 c-9 -26 -7 -32 5 -12 6 10 9 21 6 23 -2 3 -7 -2 -11 -11z"/>
<path d="M4112 9940 c0 -14 2 -19 5 -12 2 6 2 18 0 25 -3 6 -5 1 -5 -13z"/>
<path d="M4181 9944 c0 -11 3 -14 6 -6 3 7 2 16 -1 19 -3 4 -6 -2 -5 -13z"/>
<path d="M8571 9909 c-6 -18 -9 -34 -7 -36 2 -2 9 10 15 28 6 18 9 34 7 36 -2
2 -9 -10 -15 -28z"/>
<path d="M6361 9864 c0 -11 3 -14 6 -6 3 7 2 16 -1 19 -3 4 -6 -2 -5 -13z"/>
<path d="M8546 9845 c-9 -26 -7 -32 5 -12 6 10 9 21 6 23 -2 3 -7 -2 -11 -11z"/>
<path d="M4091 9814 c0 -11 3 -14 6 -6 3 7 2 16 -1 19 -3 4 -6 -2 -5 -13z"/>
<path d="M4161 9804 c0 -11 3 -14 6 -6 3 7 2 16 -1 19 -3 4 -6 -2 -5 -13z"/>
<path d="M4081 9754 c0 -11 3 -14 6 -6 3 7 2 16 -1 19 -3 4 -6 -2 -5 -13z"/>
<path d="M6400 9761 c0 -6 4 -13 10 -16 6 -3 7 1 4 9 -7 18 -14 21 -14 7z"/>
<path d="M4151 9734 c0 -11 3 -14 6 -6 3 7 2 16 -1 19 -3 4 -6 -2 -5 -13z"/>
<path d="M1650 9730 c-8 -5 -10 -10 -5 -10 6 0 17 5 25 10 8 5 11 10 5 10 -5
0 -17 -5 -25 -10z"/>
<path d="M1600 9719 c0 -5 5 -7 10 -4 6 3 10 8 10 11 0 2 -4 4 -10 4 -5 0 -10
-5 -10 -11z"/>
<path d="M6426 9707 c3 -10 9 -15 12 -12 3 3 0 11 -7 18 -10 9 -11 8 -5 -6z"/>
<path d="M1581 9669 c-6 -18 -9 -34 -7 -36 2 -2 9 10 15 28 6 18 9 34 7 36 -2
2 -9 -10 -15 -28z"/>
<path d="M4061 9674 c0 -11 3 -14 6 -6 3 7 2 16 -1 19 -3 4 -6 -2 -5 -13z"/>
<path d="M3332 9660 c0 -14 2 -19 5 -12 2 6 2 18 0 25 -3 6 -5 1 -5 -13z"/>
<path d="M6450 9661 c0 -6 4 -13 10 -16 6 -3 7 1 4 9 -7 18 -14 21 -14 7z"/>
<path d="M4051 9634 c0 -11 3 -14 6 -6 3 7 2 16 -1 19 -3 4 -6 -2 -5 -13z"/>
<path d="M3341 9604 c0 -11 3 -14 6 -6 3 7 2 16 -1 19 -3 4 -6 -2 -5 -13z"/>
<path d="M6481 9594 c0 -11 3 -14 6 -6 3 7 2 16 -1 19 -3 4 -6 -2 -5 -13z"/>
<path d="M4031 9564 c0 -11 3 -14 6 -6 3 7 2 16 -1 19 -3 4 -6 -2 -5 -13z"/>
<path d="M6491 9534 c0 -11 3 -14 6 -6 3 7 2 16 -1 19 -3 4 -6 -2 -5 -13z"/>
<path d="M4021 9524 c0 -11 3 -14 6 -6 3 7 2 16 -1 19 -3 4 -6 -2 -5 -13z"/>
<path d="M4011 9484 c0 -11 3 -14 6 -6 3 7 2 16 -1 19 -3 4 -6 -2 -5 -13z"/>
<path d="M6491 9484 c0 -11 3 -14 6 -6 3 7 2 16 -1 19 -3 4 -6 -2 -5 -13z"/>
<path d="M6482 9420 c0 -14 2 -19 5 -12 2 6 2 18 0 25 -3 6 -5 1 -5 -13z"/>
<path d="M3991 9404 c0 -11 3 -14 6 -6 3 7 2 16 -1 19 -3 4 -6 -2 -5 -13z"/>
<path d="M6471 9354 c0 -11 3 -14 6 -6 3 7 2 16 -1 19 -3 4 -6 -2 -5 -13z"/>
<path d="M3963 9320 c-11 -16 -10 -18 2 -14 8 4 15 12 15 20 0 19 -3 18 -17
-6z"/>
<path d="M6239 9303 l-34 -38 38 34 c20 19 37 36 37 38 0 8 -8 0 -41 -34z"/>
<path d="M6455 9309 c-4 -6 -5 -12 -2 -15 2 -3 7 2 10 11 7 17 1 20 -8 4z"/>
<path d="M6180 9260 c-9 -6 -10 -10 -3 -10 6 0 15 5 18 10 8 12 4 12 -15 0z"/>
<path d="M6426 9243 c-6 -14 -5 -15 5 -6 7 7 10 15 7 18 -3 3 -9 -2 -12 -12z"/>
<path d="M6050 9220 c0 -5 5 -10 11 -10 5 0 7 5 4 10 -3 6 -8 10 -11 10 -2 0
-4 -4 -4 -10z"/>
<path d="M5665 9193 c-35 -47 -39 -59 -7 -23 17 19 31 38 32 43 0 11 -4 8 -25
-20z"/>
<path d="M5970 9212 c0 -5 14 -7 30 -4 17 2 30 6 30 8 0 2 -13 4 -30 4 -16 0
-30 -4 -30 -8z"/>
<path d="M6350 9206 c0 -8 49 -13 60 -6 6 4 -5 7 -25 8 -19 1 -35 0 -35 -2z"/>
<path d="M5883 9165 c-3 -9 -3 -19 1 -22 3 -4 6 1 6 10 0 8 6 18 13 20 9 4 9
6 -1 6 -7 1 -15 -6 -19 -14z"/>
<path d="M6349 9163 c-13 -16 -12 -17 4 -4 9 7 17 15 17 17 0 8 -8 3 -21 -13z"/>
<path d="M5730 9156 c0 -2 8 -10 18 -17 15 -13 16 -12 3 4 -13 16 -21 21 -21
13z"/>
<path d="M6288 9153 c6 -2 18 -2 25 0 6 3 1 5 -13 5 -14 0 -19 -2 -12 -5z"/>
<path d="M6048 9143 c7 -3 16 -2 19 1 4 3 -2 6 -13 5 -11 0 -14 -3 -6 -6z"/>
<path d="M6108 9143 c6 -2 18 -2 25 0 6 3 1 5 -13 5 -14 0 -19 -2 -12 -5z"/>
<path d="M6168 9143 c6 -2 18 -2 25 0 6 3 1 5 -13 5 -14 0 -19 -2 -12 -5z"/>
<path d="M5616 9115 c-9 -26 -7 -32 5 -12 6 10 9 21 6 23 -2 3 -7 -2 -11 -11z"/>
<path d="M5905 9120 c3 -5 12 -7 20 -3 21 7 19 13 -6 13 -11 0 -18 -4 -14 -10z"/>
<path d="M6191 9104 c0 -11 3 -14 6 -6 3 7 2 16 -1 19 -3 4 -6 -2 -5 -13z"/>
<path d="M5770 9106 c0 -2 8 -10 18 -17 15 -13 16 -12 3 4 -13 16 -21 21 -21
13z"/>
<path d="M5493 9055 c0 -22 2 -30 4 -17 2 12 2 30 0 40 -3 9 -5 -1 -4 -23z"/>
<path d="M5603 9045 c0 -22 2 -30 4 -17 2 12 2 30 0 40 -3 9 -5 -1 -4 -23z"/>
<path d="M6336 9063 c-6 -14 -5 -15 5 -6 7 7 10 15 7 18 -3 3 -9 -2 -12 -12z"/>
<path d="M5827 9059 c7 -7 15 -10 18 -7 3 3 -2 9 -12 12 -14 6 -15 5 -6 -5z"/>
<path d="M6182 9040 c0 -14 2 -19 5 -12 2 6 2 18 0 25 -3 6 -5 1 -5 -13z"/>
<path d="M5610 8995 c0 -5 5 -17 10 -25 5 -8 10 -10 10 -5 0 6 -5 17 -10 25
-5 8 -10 11 -10 5z"/>
<path d="M5922 8980 c14 -22 24 -19 15 5 -4 8 -11 15 -17 15 -6 0 -6 -7 2 -20z"/>
<path d="M5501 8944 c0 -11 3 -14 6 -6 3 7 2 16 -1 19 -3 4 -6 -2 -5 -13z"/>
<path d="M5960 8956 c0 -2 7 -7 16 -10 8 -3 12 -2 9 4 -6 10 -25 14 -25 6z"/>
<path d="M5631 8949 c-1 -3 13 -39 30 -80 19 -46 29 -86 27 -106 -2 -17 0 -29
5 -26 16 10 0 85 -31 153 -17 36 -31 62 -31 59z"/>
<path d="M5956 8917 c3 -10 9 -15 12 -12 3 3 0 11 -7 18 -10 9 -11 8 -5 -6z"/>
<path d="M6171 8914 c0 -11 3 -14 6 -6 3 7 2 16 -1 19 -3 4 -6 -2 -5 -13z"/>
<path d="M6006 8907 c3 -10 9 -15 12 -12 3 3 0 11 -7 18 -10 9 -11 8 -5 -6z"/>
<path d="M6172 8860 c0 -14 2 -19 5 -12 2 6 2 18 0 25 -3 6 -5 1 -5 -13z"/>
<path d="M5521 8854 c0 -11 3 -14 6 -6 3 7 2 16 -1 19 -3 4 -6 -2 -5 -13z"/>
<path d="M6030 8861 c0 -6 4 -13 10 -16 6 -3 7 1 4 9 -7 18 -14 21 -14 7z"/>
<path d="M5531 8814 c0 -11 3 -14 6 -6 3 7 2 16 -1 19 -3 4 -6 -2 -5 -13z"/>
<path d="M5971 8804 c0 -11 3 -14 6 -6 3 7 2 16 -1 19 -3 4 -6 -2 -5 -13z"/>
<path d="M6246 8783 c-6 -14 -5 -15 5 -6 7 7 10 15 7 18 -3 3 -9 -2 -12 -12z"/>
<path d="M9801 8774 c-12 -15 -21 -37 -21 -49 0 -19 7 -24 40 -30 70 -12 96 0
110 50 11 38 16 44 44 48 26 3 25 4 -10 5 -41 2 -42 1 -54 -43 -10 -36 -17
-45 -35 -45 -19 0 -24 7 -29 45 -8 52 -16 55 -45 19z m25 -62 c-4 -3 -11 -1
-17 5 -8 8 -7 18 3 34 l13 24 3 -28 c2 -16 1 -31 -2 -35z"/>
<path d="M5541 8764 c0 -11 3 -14 6 -6 3 7 2 16 -1 19 -3 4 -6 -2 -5 -13z"/>
<path d="M5388 8753 c12 -2 30 -2 40 0 9 3 -1 5 -23 4 -22 0 -30 -2 -17 -4z"/>
<path d="M5508 8753 c7 -3 16 -2 19 1 4 3 -2 6 -13 5 -11 0 -14 -3 -6 -6z"/>
<path d="M6072 8740 c0 -14 2 -19 5 -12 2 6 2 18 0 25 -3 6 -5 1 -5 -13z"/>
<path d="M5580 8741 c8 -4 29 -11 45 -15 19 -4 25 -3 15 3 -8 4 -28 11 -45 15
-19 4 -25 3 -15 -3z"/>
<path d="M6219 8733 c-13 -16 -12 -17 4 -4 9 7 17 15 17 17 0 8 -8 3 -21 -13z"/>
<path d="M5551 8724 c0 -11 3 -14 6 -6 3 7 2 16 -1 19 -3 4 -6 -2 -5 -13z"/>
<path d="M5627 8670 c-37 -44 -47 -49 -47 -23 0 9 -2 14 -5 12 -2 -3 -1 -25 4
-50 6 -30 9 -36 10 -17 1 15 5 29 10 33 13 7 74 85 68 85 -3 0 -21 -18 -40
-40z"/>
<path d="M5561 8684 c0 -11 3 -14 6 -6 3 7 2 16 -1 19 -3 4 -6 -2 -5 -13z"/>
<path d="M6001 8684 c0 -11 3 -14 6 -6 3 7 2 16 -1 19 -3 4 -6 -2 -5 -13z"/>
<path d="M6071 8684 c0 -11 3 -14 6 -6 3 7 2 16 -1 19 -3 4 -6 -2 -5 -13z"/>
<path d="M6157 8678 c-6 -22 0 -23 19 -4 18 18 18 23 0 23 -8 0 -17 -9 -19
-19z"/>
<path d="M6030 8568 c0 -19 2 -20 10 -8 13 19 13 30 0 30 -5 0 -10 -10 -10
-22z"/>
<path d="M6172 8560 c0 -14 2 -19 5 -12 2 6 2 18 0 25 -3 6 -5 1 -5 -13z"/>
<path d="M6021 8514 c0 -11 3 -14 6 -6 3 7 2 16 -1 19 -3 4 -6 -2 -5 -13z"/>
<path d="M6172 8500 c0 -14 2 -19 5 -12 2 6 2 18 0 25 -3 6 -5 1 -5 -13z"/>
<path d="M5592 8485 c0 -16 2 -22 5 -12 2 9 2 23 0 30 -3 6 -5 -1 -5 -18z"/>
<path d="M5975 8460 c-17 -19 -17 -20 0 -20 10 0 15 3 12 7 -4 3 -2 12 4 20
18 21 4 15 -16 -7z"/>
<path d="M5828 8453 c10 -4 10 -8 0 -21 -12 -15 -11 -16 4 -3 19 14 15 32 -5
30 -8 0 -8 -2 1 -6z"/>
<path d="M6145 8430 c-4 -6 3 -10 14 -10 25 0 27 6 6 13 -8 4 -17 2 -20 -3z"/>
<path d="M8623 7085 c0 -22 2 -30 4 -17 2 12 2 30 0 40 -3 9 -5 -1 -4 -23z"/>
<path d="M8611 7024 c0 -11 3 -14 6 -6 3 7 2 16 -1 19 -3 4 -6 -2 -5 -13z"/>
<path d="M8601 6984 c0 -11 3 -14 6 -6 3 7 2 16 -1 19 -3 4 -6 -2 -5 -13z"/>
<path d="M8591 6944 c0 -11 3 -14 6 -6 3 7 2 16 -1 19 -3 4 -6 -2 -5 -13z"/>
<path d="M8572 6904 c-7 -8 -8 -14 -3 -14 10 0 25 19 20 25 -2 1 -10 -3 -17
-11z"/>
<path d="M8510 6875 c-14 -8 -20 -14 -15 -14 6 0 21 6 35 14 14 8 21 14 15 14
-5 0 -21 -6 -35 -14z"/>
<path d="M8445 6850 c-13 -6 -15 -9 -5 -9 8 0 22 4 30 9 18 12 2 12 -25 0z"/>
<path d="M8398 6833 c7 -3 16 -2 19 1 4 3 -2 6 -13 5 -11 0 -14 -3 -6 -6z"/>
<path d="M8358 6823 c7 -3 16 -2 19 1 4 3 -2 6 -13 5 -11 0 -14 -3 -6 -6z"/>
<path d="M8013 6793 c15 -2 39 -2 55 0 15 2 2 4 -28 4 -30 0 -43 -2 -27 -4z"/>
<path d="M7908 6783 c6 -2 18 -2 25 0 6 3 1 5 -13 5 -14 0 -19 -2 -12 -5z"/>
<path d="M7858 6773 c6 -2 18 -2 25 0 6 3 1 5 -13 5 -14 0 -19 -2 -12 -5z"/>
<path d="M7740 6730 c-19 -11 -30 -19 -25 -19 6 0 26 8 45 19 19 11 31 19 25
19 -5 0 -26 -8 -45 -19z"/>
<path d="M7655 6693 c-16 -8 -49 -31 -72 -50 -23 -19 -55 -40 -70 -48 -18 -9
-22 -15 -11 -15 9 0 40 19 69 41 29 23 71 52 93 65 46 26 38 32 -9 7z"/>
<path d="M9601 6419 c-1 -26 23 -49 204 -186 175 -133 195 -147 195 -140 0 2
-85 69 -190 148 -115 87 -193 154 -199 169 -6 15 -10 19 -10 9z"/>
<path d="M8750 3817 c0 -6 -63 -239 -75 -277 -4 -14 -2 -20 8 -20 20 0 95 276
79 292 -7 7 -12 9 -12 5z"/>
<path d="M7450 1771 c0 -6 25 -18 56 -28 65 -20 93 -51 118 -129 27 -84 9
-160 -76 -317 -38 -70 -66 -132 -63 -136 2 -5 73 13 157 40 118 38 166 49 207
47 70 -2 81 18 15 28 -39 6 -68 0 -181 -35 -73 -23 -141 -45 -150 -48 -11 -4
5 34 47 112 82 155 98 228 69 312 -30 88 -56 120 -117 143 -58 22 -82 25 -82
11z"/>
<path d="M0 1401 c0 -11 3 -11 200 -46 262 -46 1144 -233 1202 -255 40 -15 79
-42 132 -91 71 -66 76 -74 121 -186 26 -66 61 -135 82 -159 45 -56 121 -102
186 -114 28 -6 52 -12 55 -14 12 -12 -30 -54 -116 -118 -53 -39 -149 -121
-212 -183 -142 -139 -190 -166 -282 -160 -176 13 -208 13 -208 4 0 -5 24 -9
53 -9 28 0 89 -3 134 -6 81 -7 81 -7 72 -31 -11 -30 -11 -33 0 -33 5 0 14 13
19 30 8 21 26 37 69 59 39 20 91 63 158 131 55 56 146 135 202 176 56 41 111
90 123 109 18 30 27 35 59 35 30 0 44 -8 78 -42 63 -66 95 -128 163 -320 42
-120 68 -178 78 -178 9 0 12 6 7 18 -4 9 -34 91 -67 182 -60 166 -98 244 -146
302 l-26 31 66 -7 c60 -7 71 -5 119 20 29 14 79 48 112 74 131 106 162 208
132 430 -10 72 -22 130 -27 130 -5 0 -6 -15 -3 -32 29 -174 33 -224 19 -297
-9 -47 -25 -92 -44 -121 -34 -53 -128 -132 -202 -171 l-49 -25 -107 13 c-59 8
-142 18 -184 23 -69 8 -159 39 -133 46 6 1 22 5 38 8 26 6 27 9 25 59 -1 46
-2 48 -5 13 -3 -22 -12 -46 -21 -53 -59 -44 -129 22 -192 182 -28 70 -58 127
-83 157 -46 55 -132 123 -183 144 -60 25 -1334 284 -1397 284 -10 0 -17 -4
-17 -9z"/>
<path d="M4690 144 c0 -5 15 -16 33 -24 25 -12 36 -27 51 -67 10 -29 22 -53
27 -53 12 0 -21 103 -39 122 -19 19 -72 35 -72 22z"/>
<path d="M7061 83 c-1 -32 3 -43 14 -43 22 0 31 31 13 44 -8 6 -17 18 -21 26
-3 8 -6 -4 -6 -27z m29 -18 c0 -8 -4 -15 -10 -15 -5 0 -10 7 -10 15 0 8 5 15
10 15 6 0 10 -7 10 -15z"/>
<path d="M7290 105 c0 -8 -6 -15 -14 -15 -8 0 -16 -6 -19 -12 -7 -21 4 -38 24
-38 15 0 19 7 19 40 0 22 -2 40 -5 40 -3 0 -5 -7 -5 -15z m0 -40 c0 -8 -4 -15
-9 -15 -13 0 -22 16 -14 24 11 11 23 6 23 -9z"/>
<path d="M7392 80 c0 -25 3 -35 5 -22 2 12 9 22 14 22 5 0 10 -10 10 -22 1
-20 2 -21 6 -4 3 11 -1 24 -9 30 -8 6 -17 18 -21 26 -3 8 -5 -5 -5 -30z"/>
<path d="M8130 105 c0 -8 -6 -15 -14 -15 -8 0 -16 -6 -19 -12 -7 -21 4 -38 24
-38 15 0 19 7 19 40 0 22 -2 40 -5 40 -3 0 -5 -7 -5 -15z m0 -40 c0 -8 -4 -15
-9 -15 -13 0 -22 16 -14 24 11 11 23 6 23 -9z"/>
<path d="M6902 75 c0 -22 2 -32 5 -22 5 18 5 18 26 0 21 -17 21 -17 7 0 -11
15 -11 23 -2 38 7 10 8 19 3 19 -5 0 -12 -8 -16 -17 -7 -17 -8 -16 -15 2 -7
15 -8 10 -8 -20z"/>
<path d="M7881 75 c1 -40 1 -40 10 -10 5 18 5 33 -1 39 -7 7 -10 -4 -9 -29z"/>
<path d="M7926 85 c-4 -14 -11 -23 -16 -20 -6 3 -10 2 -10 -4 0 -21 19 -20 26
1 l8 23 7 -25 c6 -22 7 -20 8 13 1 42 -14 50 -23 12z"/>
<path d="M8317 103 c-3 -5 8 -8 23 -8 15 0 26 3 23 8 -2 4 -13 7 -23 7 -10 0
-21 -3 -23 -7z"/>
<path d="M8390 100 c0 -5 7 -7 15 -4 8 4 15 2 15 -4 0 -5 -7 -15 -15 -22 -22
-18 -18 -30 8 -29 18 1 18 2 4 6 -17 4 -17 6 -2 23 9 10 14 24 10 29 -8 14
-35 14 -35 1z"/>
<path d="M8450 75 c0 -29 3 -36 18 -33 11 2 17 13 17 33 0 20 -6 31 -17 33
-15 3 -18 -4 -18 -33z m30 0 c0 -14 -4 -25 -10 -25 -5 0 -10 11 -10 25 0 14 5
25 10 25 6 0 10 -11 10 -25z"/>
<path d="M8510 100 c0 -5 7 -7 15 -4 8 4 15 2 15 -4 0 -5 -7 -15 -15 -22 -22
-18 -18 -30 8 -29 18 1 18 2 4 6 -17 4 -17 6 -2 23 9 10 14 24 10 29 -8 14
-35 14 -35 1z"/>
<path d="M8570 101 c0 -6 7 -8 15 -5 8 4 15 2 15 -4 0 -6 -6 -13 -12 -15 -10
-4 -10 -6 0 -6 6 -1 12 -6 12 -12 0 -6 -7 -9 -15 -5 -8 3 -15 1 -15 -5 0 -6 8
-9 18 -7 11 2 17 13 17 33 0 20 -6 31 -17 33 -10 2 -18 -1 -18 -7z"/>
<path d="M8747 102 c6 -4 13 -21 16 -37 l4 -30 2 32 c0 21 7 33 19 36 9 3 1 5
-18 6 -19 0 -30 -3 -23 -7z"/>
<path d="M9151 73 c1 -21 3 -30 6 -20 6 21 12 22 27 2 9 -12 11 -9 11 17 0 27
-4 34 -22 36 -21 3 -23 -1 -22 -35z m29 17 c0 -5 -4 -10 -10 -10 -5 0 -10 5
-10 10 0 6 5 10 10 10 6 0 10 -4 10 -10z"/>
<path d="M7528 92 c-12 -2 -18 -12 -17 -30 2 -24 2 -24 6 -4 5 27 23 29 23 2
0 -11 4 -20 8 -20 8 0 9 47 1 53 -2 2 -12 2 -21 -1z"/>
<path d="M7678 95 c-7 -7 3 -55 11 -55 8 0 7 47 -1 55 -2 3 -7 3 -10 0z"/>
<path d="M8208 95 c-7 -7 3 -55 11 -55 8 0 7 47 -1 55 -2 3 -7 3 -10 0z"/>
<path d="M9398 92 c-12 -2 -18 -12 -17 -30 2 -24 2 -24 6 -4 5 27 23 29 23 2
0 -11 4 -20 8 -20 8 0 9 47 1 53 -2 2 -12 2 -21 -1z"/>
<path d="M6958 78 c-8 -20 2 -38 20 -38 15 0 15 2 2 10 -13 8 -12 10 3 10 9 0
17 6 18 13 0 6 5 1 10 -12 7 -18 6 -27 -3 -33 -11 -6 -11 -8 0 -8 14 0 35 47
28 64 -2 6 -5 2 -5 -9 -1 -16 -3 -17 -10 -6 -12 19 -57 25 -63 9z"/>
<path d="M7117 77 c-3 -8 -2 -20 3 -27 11 -18 42 -4 38 17 -4 22 -34 29 -41
10z m33 -12 c0 -8 -4 -15 -9 -15 -13 0 -22 16 -14 24 11 11 23 6 23 -9z"/>
<path d="M7195 81 c17 -8 18 -10 3 -10 -26 -1 -22 -31 3 -31 28 0 23 44 -6 47
l-20 3 20 -9z"/>
<path d="M7230 65 c0 -14 2 -25 4 -25 2 0 6 11 8 25 3 14 1 25 -3 25 -5 0 -9
-11 -9 -25z"/>
<path d="M7340 80 c0 -6 8 -14 17 -17 15 -6 15 -7 -3 -14 -16 -6 -16 -8 -2 -8
23 -1 33 18 13 25 -13 6 -14 8 -3 15 10 7 9 9 -4 9 -10 0 -18 -5 -18 -10z"/>
<path d="M7447 77 c-3 -8 -2 -20 3 -27 11 -18 42 -4 38 17 -4 22 -34 29 -41
10z m33 -12 c0 -8 -4 -15 -9 -15 -13 0 -22 16 -14 24 11 11 23 6 23 -9z"/>
<path d="M7568 78 c-11 -29 21 -54 36 -29 3 5 0 8 -7 7 -6 0 -12 4 -12 9 0 6
6 9 12 9 7 -1 10 2 7 7 -8 13 -31 11 -36 -3z"/>
<path d="M7621 68 c-1 -22 4 -28 19 -28 15 0 20 6 19 28 -2 23 -2 24 -6 5 -2
-13 -8 -23 -13 -23 -5 0 -11 10 -13 23 -4 19 -4 18 -6 -5z"/>
<path d="M7710 80 c0 -6 8 -14 17 -17 15 -6 15 -7 -3 -14 -16 -6 -16 -8 -2 -8
23 -1 33 18 13 25 -13 6 -14 8 -3 15 10 7 9 9 -4 9 -10 0 -18 -5 -18 -10z"/>
<path d="M7985 81 c17 -8 18 -10 3 -10 -26 -1 -22 -31 3 -31 28 0 23 44 -6 47
l-20 3 20 -9z"/>
<path d="M8020 55 l0 -36 21 20 c23 21 20 51 -6 51 -11 0 -15 -10 -15 -35z
m30 10 c0 -8 -4 -15 -10 -15 -5 0 -10 7 -10 15 0 8 5 15 10 15 6 0 10 -7 10
-15z"/>
<path d="M8175 81 c17 -8 18 -10 3 -10 -26 -1 -22 -31 3 -31 28 0 23 44 -6 47
l-20 3 20 -9z"/>
<path d="M8255 81 c17 -8 18 -10 3 -10 -26 -1 -22 -31 3 -31 28 0 23 44 -6 47
l-20 3 20 -9z"/>
<path d="M8325 81 c-6 -11 13 -26 22 -17 4 3 0 6 -8 6 -11 0 -11 2 1 10 9 6
10 10 3 10 -6 0 -14 -4 -18 -9z"/>
<path d="M8808 78 c-8 -20 2 -38 20 -38 15 0 15 2 2 10 -13 8 -12 10 3 10 11
0 17 6 15 13 -6 17 -34 21 -40 5z"/>
<path d="M8861 63 c2 -24 2 -25 6 -5 2 12 8 22 13 22 5 0 11 -10 13 -22 l4
-23 2 23 c0 12 5 22 10 22 5 0 12 -10 14 -22 l4 -23 2 23 c0 12 5 22 10 22 5
0 12 -10 14 -22 4 -20 4 -19 6 5 1 26 -1 27 -49 27 -48 0 -50 -1 -49 -27z"/>
<path d="M8980 80 c0 -6 8 -14 17 -17 15 -6 15 -7 -3 -14 -16 -6 -16 -8 -2 -8
23 -1 33 18 13 25 -13 6 -14 8 -3 15 10 7 9 9 -4 9 -10 0 -18 -5 -18 -10z"/>
<path d="M9208 78 c-8 -20 2 -38 20 -38 15 0 15 2 2 10 -13 8 -12 10 3 10 11
0 17 6 15 13 -6 17 -34 21 -40 5z"/>
<path d="M9260 55 l0 -36 21 20 c23 21 20 51 -6 51 -11 0 -15 -10 -15 -35z
m30 10 c0 -8 -4 -15 -10 -15 -5 0 -10 7 -10 15 0 8 5 15 10 15 6 0 10 -7 10
-15z"/>
<path d="M9317 77 c-3 -8 -2 -20 3 -27 11 -18 42 -4 38 17 -4 22 -34 29 -41
10z m33 -12 c0 -8 -4 -15 -9 -15 -13 0 -22 16 -14 24 11 11 23 6 23 -9z"/>
<path d="M9475 81 c17 -8 18 -10 3 -10 -26 -1 -22 -31 3 -31 28 0 23 44 -6 47
l-20 3 20 -9z"/>
<path d="M9531 63 c2 -24 2 -25 6 -5 2 12 8 22 13 22 5 0 11 -10 13 -22 l4
-23 2 23 c0 12 5 22 10 22 5 0 12 -10 14 -22 4 -20 4 -19 6 5 1 25 -2 27 -34
27 -32 0 -35 -2 -34 -27z"/>
<path d="M9635 81 c17 -8 18 -10 3 -10 -26 -1 -22 -31 3 -31 28 0 23 44 -6 47
l-20 3 20 -9z"/>
<path d="M9670 55 l0 -36 21 20 c23 21 20 51 -6 51 -11 0 -15 -10 -15 -35z
m30 10 c0 -8 -4 -15 -10 -15 -5 0 -10 7 -10 15 0 8 5 15 10 15 6 0 10 -7 10
-15z"/>
<path d="M9748 78 c-8 -20 2 -38 20 -38 15 0 15 2 2 10 -13 8 -12 10 3 10 11
0 17 6 15 13 -6 17 -34 21 -40 5z"/>
<path d="M9801 63 c2 -24 2 -25 6 -5 2 12 8 22 13 22 5 0 10 -10 12 -22 3 -21
4 -21 9 5 5 23 3 27 -17 27 -20 0 -24 -5 -23 -27z"/>
<path d="M9856 81 c-10 -16 5 -42 23 -39 21 4 21 42 -1 46 -9 2 -19 -1 -22 -7z
m34 -16 c0 -8 -4 -15 -10 -15 -5 0 -10 7 -10 15 0 8 5 15 10 15 6 0 10 -7 10
-15z"/>
<path d="M9920 65 c0 -14 2 -25 4 -25 2 0 6 11 8 25 3 14 1 25 -3 25 -5 0 -9
-11 -9 -25z"/>
<path d="M8360 61 c0 -9 -9 -12 -25 -9 -13 3 -22 1 -19 -3 7 -13 42 -11 49 2
4 6 4 13 1 16 -3 4 -6 1 -6 -6z"/>
</g>
</svg>
